<?xml version="1.0" encoding="utf-8"?><svg xmlns="http://www.w3.org/2000/svg" xmlns:xlink="http://www.w3.org/1999/xlink"><symbol viewBox="0 0 100 100" id="icons" xmlns="http://www.w3.org/2000/svg"/><symbol viewBox="0 0 130.94 107.15" id="logo" xmlns="http://www.w3.org/2000/svg"><path d="M13.49 107.15H5.82c-1.42 0-2.13-.78-2.13-2.32V24.15c0-1.55.71-2.32 2.13-2.32h7.66c1.42 0 2.13.77 2.13 2.32v80.68c0 1.55-.71 2.32-2.13 2.32ZM27.53 84.93h-.1c-1.62 0-3.1-.42-4.46-1.25-1.36-.84-2.42-2.07-3.2-3.71-.78-1.63-1.16-3.69-1.16-6.16v-40.8c0-2.54.39-4.62 1.16-6.22.78-1.6 1.84-2.81 3.2-3.65 1.36-.84 2.85-1.25 4.46-1.25h.1c1.29 0 1.94.73 1.94 2.18v58.69c0 1.45-.65 2.18-1.94 2.18ZM34.51 84.93h-.1c-1.29 0-1.94-.73-1.94-2.18V24.06c0-1.45.65-2.18 1.94-2.18h.1c1.68 0 3.18.42 4.51 1.25 1.32.84 2.37 2.05 3.15 3.65.78 1.6 1.16 3.68 1.16 6.22v40.8c0 2.47-.39 4.53-1.16 6.16-.78 1.64-1.83 2.87-3.15 3.71-1.33.84-2.83 1.25-4.51 1.25ZM55.26 84.93h-6.98c-1.29 0-1.94-.77-1.94-2.31V2.31C46.33.77 46.98 0 48.27 0h6.98c1.3 0 1.94.77 1.94 2.31v80.31c0 1.54-.65 2.31-1.94 2.31ZM62.23 84.93h-.1c-1.29 0-1.94-.73-1.94-2.18V24.06c0-1.45.65-2.18 1.94-2.18h.1c1.68 0 3.18.42 4.51 1.25 1.32.84 2.38 2.05 3.15 3.65.78 1.6 1.16 3.68 1.16 6.22v40.8c0 2.47-.39 4.53-1.16 6.16-.78 1.64-1.83 2.87-3.15 3.71-1.33.84-2.83 1.25-4.51 1.25ZM82.97 42.83h-6.98c-1.29 0-1.94-.73-1.94-2.18v-8.29c0-2.4.39-4.36 1.16-5.89.78-1.52 1.84-2.67 3.2-3.44a8.98 8.98 0 0 1 4.46-1.15h.09c1.29 0 1.94.73 1.94 2.18v16.58c0 1.45-.65 2.18-1.94 2.18ZM82.97 84.93h-.09c-1.62 0-3.1-.38-4.46-1.15s-2.42-1.91-3.2-3.44c-.78-1.53-1.16-3.49-1.16-5.89V55.47c0-2.4.39-4.36 1.16-5.89.78-1.53 1.84-2.67 3.2-3.44s2.84-1.15 4.46-1.15h.09c1.29 0 1.94.73 1.94 2.18v35.56c0 1.45-.65 2.18-1.94 2.18ZM96.84 84.93h-6.98c-1.29 0-1.94-.73-1.94-2.18V24.06c0-1.45.65-2.18 1.94-2.18h.1c1.68 0 3.18.38 4.51 1.15 1.32.76 2.38 1.91 3.15 3.44.78 1.53 1.16 3.49 1.16 5.89v50.4c0 1.45-.65 2.18-1.94 2.18ZM110.69 84.93h-6.98c-1.29 0-1.94-.73-1.94-2.18V24.06c0-1.45.65-2.18 1.94-2.18h6.98c1.29 0 1.94.73 1.94 2.18v58.69c0 1.45-.65 2.18-1.94 2.18ZM124.56 84.93h-6.98c-1.29 0-1.94-.73-1.94-2.18V24.06c0-1.45.65-2.18 1.94-2.18h.1c1.68 0 3.18.42 4.51 1.25 1.32.84 2.38 2.05 3.15 3.65.78 1.6 1.16 3.68 1.16 6.22v49.74c0 1.45-.65 2.18-1.94 2.18ZM6.44 14.89l2.75 5.41c.25.5.97.5 1.22 0l2.65-5.3c.29-.58.74-1.06 1.31-1.37l4.83-2.73c.47-.26.46-.93 0-1.19l-4.75-2.62c-.57-.32-1.03-.8-1.33-1.38L10.43.38a.68.68 0 0 0-1.22 0L6.64 5.69c-.3.62-.8 1.14-1.41 1.46L.37 9.7a.68.68 0 0 0-.01 1.2l4.76 2.61c.57.31 1.04.79 1.33 1.38ZM117.85 101.36l2.75 5.41c.25.5.97.5 1.22 0l2.65-5.3c.29-.58.74-1.06 1.31-1.37l4.83-2.73c.47-.26.46-.93 0-1.19l-4.75-2.62c-.57-.32-1.03-.8-1.33-1.38l-2.68-5.33a.68.68 0 0 0-1.22 0l-2.57 5.31c-.3.62-.8 1.14-1.41 1.46l-4.86 2.55a.68.68 0 0 0-.01 1.2l4.76 2.61c.57.31 1.04.79 1.33 1.38Z"/></symbol></svg>