<?xml version="1.0" encoding="UTF-8"?><svg xmlns="http://www.w3.org/2000/svg" viewBox="0 0 130.94 107.15"><g id="a"/><g id="b"><g id="c"><g><path d="M13.49,107.15H5.82c-1.42,0-2.13-.78-2.13-2.32V24.15c0-1.55,.71-2.32,2.13-2.32h7.66c1.42,0,2.13,.77,2.13,2.32V104.83c0,1.55-.71,2.32-2.13,2.32Z"/><path d="M27.53,84.93h-.1c-1.62,0-3.1-.42-4.46-1.25-1.36-.84-2.42-2.07-3.2-3.71-.78-1.63-1.16-3.69-1.16-6.16V33.01c0-2.54,.39-4.62,1.16-6.22,.78-1.6,1.84-2.81,3.2-3.65,1.36-.84,2.85-1.25,4.46-1.25h.1c1.29,0,1.94,.73,1.94,2.18v58.69c0,1.45-.65,2.18-1.94,2.18Z"/><path d="M34.51,84.93h-.1c-1.29,0-1.94-.73-1.94-2.18V24.06c0-1.45,.65-2.18,1.94-2.18h.1c1.68,0,3.18,.42,4.51,1.25,1.32,.84,2.37,2.05,3.15,3.65,.78,1.6,1.16,3.68,1.16,6.22v40.8c0,2.47-.39,4.53-1.16,6.16-.78,1.64-1.83,2.87-3.15,3.71-1.33,.84-2.83,1.25-4.51,1.25Z"/><path d="M55.26,84.93h-6.98c-1.29,0-1.94-.77-1.94-2.31V2.31C46.33,.77,46.98,0,48.27,0h6.98C56.55,0,57.19,.77,57.19,2.31V82.62c0,1.54-.65,2.31-1.94,2.31Z"/><path d="M62.23,84.93h-.1c-1.29,0-1.94-.73-1.94-2.18V24.06c0-1.45,.65-2.18,1.94-2.18h.1c1.68,0,3.18,.42,4.51,1.25,1.32,.84,2.38,2.05,3.15,3.65,.78,1.6,1.16,3.68,1.16,6.22v40.8c0,2.47-.39,4.53-1.16,6.16-.78,1.64-1.83,2.87-3.15,3.71-1.33,.84-2.83,1.25-4.51,1.25Z"/><g><path d="M82.97,42.83h-6.98c-1.29,0-1.94-.73-1.94-2.18v-8.29c0-2.4,.39-4.36,1.16-5.89,.78-1.52,1.84-2.67,3.2-3.44,1.36-.76,2.84-1.15,4.46-1.15h.09c1.29,0,1.94,.73,1.94,2.18v16.58c0,1.45-.65,2.18-1.94,2.18Z"/><path d="M82.97,84.93h-.09c-1.62,0-3.1-.38-4.46-1.15s-2.42-1.91-3.2-3.44c-.78-1.53-1.16-3.49-1.16-5.89v-18.98c0-2.4,.39-4.36,1.16-5.89,.78-1.53,1.84-2.67,3.2-3.44s2.84-1.15,4.46-1.15h.09c1.29,0,1.94,.73,1.94,2.18v35.56c0,1.45-.65,2.18-1.94,2.18Z"/></g><path d="M96.84,84.93h-6.98c-1.29,0-1.94-.73-1.94-2.18V24.06c0-1.45,.65-2.18,1.94-2.18h.1c1.68,0,3.18,.38,4.51,1.15,1.32,.76,2.38,1.91,3.15,3.44,.78,1.53,1.16,3.49,1.16,5.89v50.4c0,1.45-.65,2.18-1.94,2.18Z"/><path d="M110.69,84.93h-6.98c-1.29,0-1.94-.73-1.94-2.18V24.06c0-1.45,.65-2.18,1.94-2.18h6.98c1.29,0,1.94,.73,1.94,2.18v58.69c0,1.45-.65,2.18-1.94,2.18Z"/><path d="M124.56,84.93h-6.98c-1.29,0-1.94-.73-1.94-2.18V24.06c0-1.45,.65-2.18,1.94-2.18h.1c1.68,0,3.18,.42,4.51,1.25,1.32,.84,2.38,2.05,3.15,3.65,.78,1.6,1.16,3.68,1.16,6.22v49.74c0,1.45-.65,2.18-1.94,2.18Z"/><path d="M6.44,14.89l2.75,5.41c.25,.5,.97,.5,1.22,0l2.65-5.3c.29-.58,.74-1.06,1.31-1.37l4.83-2.73c.47-.26,.46-.93,0-1.19l-4.75-2.62c-.57-.32-1.03-.8-1.33-1.38L10.43,.38c-.25-.51-.98-.5-1.22,0l-2.57,5.31c-.3,.62-.8,1.14-1.41,1.46L.37,9.7c-.48,.25-.49,.94-.01,1.2l4.76,2.61c.57,.31,1.04,.79,1.33,1.38Z"/><path d="M117.85,101.36l2.75,5.41c.25,.5,.97,.5,1.22,0l2.65-5.3c.29-.58,.74-1.06,1.31-1.37l4.83-2.73c.47-.26,.46-.93,0-1.19l-4.75-2.62c-.57-.32-1.03-.8-1.33-1.38l-2.68-5.33c-.25-.51-.98-.5-1.22,0l-2.57,5.31c-.3,.62-.8,1.14-1.41,1.46l-4.86,2.55c-.48,.25-.49,.94-.01,1.2l4.76,2.61c.57,.31,1.04,.79,1.33,1.38Z"/></g></g></g></svg>