<?xml version="1.0" encoding="UTF-8"?><svg xmlns="http://www.w3.org/2000/svg" viewBox="0 0 121.24 102.44"><g id="a"/><g id="b"><g id="c"><path d="M14.25,102.41H6.58c-1.42,0-2.13-.72-2.13-2.15V25.75c0-1.43,.71-2.14,2.13-2.14h7.66c1.42,0,2.13,.71,2.13,2.14V100.26c0,1.43-.71,2.15-2.13,2.15Z"/><path d="M26.71,80.25h-.1c-1.62,0-3.1-.42-4.46-1.25-1.36-.84-2.42-2.07-3.2-3.71-.78-1.63-1.16-3.69-1.16-6.16V28.33c0-2.54,.39-4.62,1.16-6.22,.78-1.6,1.84-2.81,3.2-3.65,1.36-.84,2.85-1.25,4.46-1.25h.1c1.29,0,1.94,.73,1.94,2.18v58.69c0,1.45-.65,2.18-1.94,2.18Zm5.91,0h-.1c-1.29,0-1.94-.73-1.94-2.18V19.39c0-1.45,.65-2.18,1.94-2.18h.1c1.68,0,3.18,.42,4.51,1.25,1.32,.84,2.37,2.05,3.15,3.65,.78,1.6,1.16,3.68,1.16,6.22v40.8c0,2.47-.39,4.53-1.16,6.16-.78,1.64-1.83,2.87-3.15,3.71-1.33,.84-2.83,1.25-4.51,1.25Z"/><path d="M52.3,80.25h-6.98c-1.29,0-1.94-.73-1.94-2.18V2.26c0-1.45,.65-2.18,1.94-2.18h6.98c1.29,0,1.94,.73,1.94,2.18V78.07c0,1.45-.65,2.18-1.94,2.18Zm5.91,0h-.1c-1.29,0-1.94-.73-1.94-2.18V19.39c0-1.45,.65-2.18,1.94-2.18h.1c1.68,0,3.18,.42,4.51,1.25,1.32,.84,2.38,2.05,3.15,3.65,.78,1.6,1.16,3.68,1.16,6.22v40.8c0,2.47-.39,4.53-1.16,6.16-.78,1.64-1.83,2.87-3.15,3.71-1.33,.84-2.83,1.25-4.51,1.25Z"/><path d="M77.9,38.15h-6.98c-1.29,0-1.94-.73-1.94-2.18v-8.29c0-2.4,.39-4.36,1.16-5.89,.78-1.52,1.84-2.67,3.2-3.44,1.36-.76,2.84-1.15,4.46-1.15h.09c1.29,0,1.94,.73,1.94,2.18v16.58c0,1.45-.65,2.18-1.94,2.18Zm0,42.1h-.09c-1.62,0-3.1-.38-4.46-1.15s-2.42-1.91-3.2-3.44c-.78-1.53-1.16-3.49-1.16-5.89v-18.98c0-2.4,.39-4.36,1.16-5.89s1.84-2.67,3.2-3.44,2.84-1.15,4.46-1.15h.09c1.29,0,1.94,.73,1.94,2.18v35.56c0,1.45-.65,2.18-1.94,2.18Zm12.8,0h-6.98c-1.29,0-1.94-.73-1.94-2.18V19.39c0-1.45,.65-2.18,1.94-2.18h.1c1.68,0,3.18,.38,4.51,1.15,1.32,.76,2.38,1.91,3.15,3.44,.78,1.53,1.16,3.49,1.16,5.89v50.4c0,1.45-.65,2.18-1.94,2.18Z"/><path d="M103.5,80.25h-6.98c-1.29,0-1.94-.73-1.94-2.18V19.39c0-1.45,.65-2.18,1.94-2.18h6.98c1.29,0,1.94,.73,1.94,2.18v58.69c0,1.45-.65,2.18-1.94,2.18Zm12.8,0h-6.98c-1.29,0-1.94-.73-1.94-2.18V19.39c0-1.45,.65-2.18,1.94-2.18h.1c1.68,0,3.18,.42,4.51,1.25,1.32,.84,2.38,2.05,3.15,3.65,.78,1.6,1.16,3.68,1.16,6.22v49.74c0,1.45-.65,2.18-1.94,2.18Z"/><path d="M19.15,10.03c-.67-.36-1.38-.67-2.04-1.07-.77-.46-1.56-.87-2.36-1.28-.04,.02-.07,0-.1-.03-.15-.21-.39-.25-.62-.33-.13-.1-.22-.24-.31-.37-.29-.43-.42-.94-.74-1.36-.03-.14-.08-.26-.18-.37,0-.12-.05-.22-.15-.3l-.05-.15c-.09-.02-.11-.08-.08-.16l-.08-.15c-.08-.03-.09-.09-.06-.16-.07-.15-.14-.31-.22-.46-.07-.22-.17-.42-.31-.61-.33-.68-.67-1.36-1-2.04-.15-.32-.3-.65-.52-.93-.31-.39-.66-.35-.91,.08-.15,.26-.29,.53-.4,.8-.3,.75-.69,1.47-1.05,2.19-.6,1.19-1.19,2.38-1.79,3.57-.1,.19-.24,.32-.43,.42-.69,.37-1.37,.75-2.06,1.12-.02,.1-.05,.2-.07,.29,.31-.1,.58-.25,.86-.41-.27,.16-.55,.32-.86,.41l.07-.29c-1.13,.56-2.23,1.16-3.32,1.79-.27,.04-.35,.25-.37,.46-.03,.29,.18,.43,.4,.55,1.73,.93,3.47,1.86,5.21,2.79,.22,.12,.41,.25,.52,.49,.49,1.02,.99,2.03,1.49,3.04,.55,1.12,1.1,2.23,1.67,3.34,.12,.23,.27,.51,.59,.55,.26,.03,.4-.16,.51-.35,.13-.25,.29-.49,.34-.77,.02-.01,.03-.03,.03-.05,.04-.06,.09-.12,.12-.19,.9-1.81,1.8-3.62,2.7-5.44,.14-.28,.34-.48,.6-.62,1.66-.89,3.32-1.79,4.98-2.67,.32-.17,.65-.32,.64-.73,0-.39-.39-.47-.66-.62Zm-12.44,3.63c-.1-.02-.19-.05-.27-.1,.08,.05,.17,.08,.27,.1,.05,.1,.1,.2,.15,.3l.38-.09,.08-.16c.21-.24,.38-.51,.56-.77-.18,.26-.36,.53-.56,.77-.03,.05-.05,.1-.08,.16l-.38,.09c-.05-.1-.1-.2-.15-.3ZM12.05,5.62c.24,.29,.46,.59,.64,.91-.18-.32-.39-.62-.64-.91-.03-.15-.04-.32-.11-.44,.07,.13,.07,.3,.11,.44Zm6.39,4.71c-.17-.11-.34-.19-.53-.24-.48-.25-.95-.5-1.42-.75,.48,.25,.95,.5,1.42,.75,.19,.05,.36,.14,.53,.24Zm-7.53,7.71c-.17-.02-.3,.07-.43,.15,.13-.08,.26-.16,.43-.15h0Zm-.97-2.21c0,.12,.02,.24,0,.35-.06,.18-.09,.36-.09,.54,0-.18,.03-.36,.09-.54,0-.12,0-.24,0-.35Zm.24-5c1,.03,2.01,.02,3.01-.07,0-.01,0-.03,.02-.03,0,0-.01,.02-.02,.03-1,.09-2,.1-3.01,.07Zm6.16-.8h0c.14-.16,.3-.2,.46-.19-.16,0-.32,.03-.46,.19Zm-3.48-2.08h0s-.04,0-.05-.02c.01,.02,.03,.02,.05,.02Zm-5.04,3.3c.17,0,.29,.04,.34,.12-.05-.08-.17-.12-.34-.12-.25,.03-.51,.07-.76,.07,.25,0,.51-.05,.76-.07Zm.74-.64l.02-.13-.17-.07,.17,.07h0l-.02,.13c-.2,.05-.43-.03-.62,.08,.2-.11,.42-.03,.62-.08Zm.32-2.37c-.05-.33-.17-.64-.37-.91,.19,.28,.32,.58,.37,.91,.15,.27,.3,.54,.42,.83-.12-.28-.27-.56-.43-.83Zm.24,3.17h0l-.09,.21c.03-.07,.06-.14,.09-.21Zm0,0c0-.07,.03-.12,.09-.15h0c0,.07-.03,.12-.09,.15Zm4.06,1.13c.07-.14,.18-.23,.31-.3-.12,.07-.24,.16-.31,.3-.15,.04-.3,.07-.44,.11l.44-.11Zm3.26-.45v.08h0v-.08Zm-2.45,1.8c-.08,.22-.23,.36-.47,.38,.24-.02,.39-.16,.47-.38l.06-.03-.06,.03Zm2.01-1.13c-.03-.11-.09-.18-.2-.22h0c.11,.03,.17,.11,.2,.22h0Zm3.46-1.97c.03-.13,0-.21-.07-.27,.06,.06,.1,.15,.07,.27h0Z"/><path d="M120.58,91c-.67-.36-1.38-.67-2.04-1.07-.77-.46-1.56-.87-2.36-1.28-.04,.02-.07,0-.1-.03-.15-.21-.39-.25-.62-.33-.13-.1-.22-.24-.31-.37-.29-.43-.42-.94-.74-1.36-.03-.14-.08-.26-.18-.37,0-.12-.05-.22-.15-.3l-.05-.15c-.09-.02-.11-.08-.08-.16l-.08-.15c-.08-.03-.09-.09-.06-.16-.07-.15-.14-.31-.22-.46-.07-.22-.17-.42-.31-.61-.33-.68-.67-1.36-1-2.04-.15-.32-.3-.65-.52-.93-.31-.39-.66-.35-.91,.08-.15,.26-.29,.53-.4,.8-.3,.75-.69,1.47-1.05,2.19-.6,1.19-1.19,2.38-1.79,3.57-.1,.19-.24,.32-.43,.42-.69,.37-1.37,.75-2.06,1.12-.02,.1-.05,.2-.07,.29,.31-.1,.58-.25,.86-.41-.27,.16-.55,.32-.86,.41l.07-.29c-1.13,.56-2.23,1.16-3.32,1.79-.27,.04-.35,.25-.37,.46-.03,.29,.18,.43,.4,.55,1.73,.93,3.47,1.86,5.21,2.79,.22,.12,.41,.25,.52,.49,.49,1.02,.99,2.03,1.49,3.04,.55,1.12,1.1,2.23,1.67,3.34,.12,.23,.27,.51,.59,.55,.26,.03,.4-.16,.51-.35,.13-.25,.29-.49,.34-.77,.02-.01,.03-.03,.03-.05,.04-.06,.09-.12,.12-.19,.9-1.81,1.8-3.62,2.7-5.44,.14-.28,.34-.48,.6-.62,1.66-.89,3.32-1.79,4.98-2.67,.32-.17,.65-.32,.64-.73,0-.39-.39-.47-.66-.62Zm-12.44,3.63c-.1-.02-.19-.05-.27-.1,.08,.05,.17,.08,.27,.1,.05,.1,.1,.2,.15,.3l.38-.09,.08-.16c.21-.24,.38-.51,.56-.77-.18,.26-.36,.53-.56,.77-.03,.05-.05,.1-.08,.16l-.38,.09c-.05-.1-.1-.2-.15-.3Zm5.34-8.04c.24,.29,.46,.59,.64,.91-.18-.32-.39-.62-.64-.91-.03-.15-.04-.32-.11-.44,.07,.13,.07,.3,.11,.44Zm6.39,4.71c-.17-.11-.34-.19-.53-.24-.48-.25-.95-.5-1.42-.75,.48,.25,.95,.5,1.42,.75,.19,.05,.36,.14,.53,.24Zm-7.53,7.71c-.17-.02-.3,.07-.43,.15,.13-.08,.26-.16,.43-.15h0Zm-.97-2.21c0,.12,.02,.24,0,.35-.06,.18-.09,.36-.09,.54,0-.18,.03-.36,.09-.54,0-.12,0-.24,0-.35Zm.24-5c1,.03,2.01,.02,3.01-.07,0-.01,0-.03,.02-.03,0,0-.01,.02-.02,.03-1,.09-2,.1-3.01,.07Zm6.16-.8h0c.14-.16,.3-.2,.46-.19-.16,0-.32,.03-.46,.19Zm-3.48-2.08h0s-.04,0-.05-.02c.01,.02,.03,.02,.05,.02Zm-5.04,3.3c.17,0,.29,.04,.34,.12-.05-.08-.17-.12-.34-.12-.25,.03-.51,.07-.76,.07,.25,0,.51-.05,.76-.07Zm.74-.64l.02-.13-.17-.07,.17,.07h0l-.02,.13c-.2,.05-.43-.03-.62,.08,.2-.11,.42-.03,.62-.08Zm.32-2.37c-.05-.33-.17-.64-.37-.91,.19,.28,.32,.58,.37,.91,.15,.27,.3,.54,.42,.83-.12-.28-.27-.56-.43-.83Zm.24,3.17h0l-.09,.21c.03-.07,.06-.14,.09-.21Zm0,0c0-.07,.03-.12,.09-.15h0c0,.07-.03,.12-.09,.15Zm4.06,1.13c.07-.14,.18-.23,.31-.3-.12,.07-.24,.16-.31,.3-.15,.04-.3,.07-.44,.11l.44-.11Zm3.26-.45v.08h0v-.08Zm-2.45,1.8c-.08,.22-.23,.36-.47,.38,.24-.02,.39-.16,.47-.38l.06-.03-.06,.03Zm2.01-1.13c-.03-.11-.09-.18-.2-.22h0c.11,.03,.17,.11,.2,.22h0Zm3.46-1.97c.03-.13,0-.21-.07-.27,.06,.06,.1,.15,.07,.27h0Z"/></g></g></svg>