<?xml version="1.0" encoding="UTF-8"?><svg xmlns="http://www.w3.org/2000/svg" viewBox="0 0 239.69608 181.79534"><defs><style>.g{fill:#7991ac;}.g,.h{stroke:#4458e4;stroke-miterlimit:10;}.h{fill:#7598eb;}.i{fill:#4458e4;}.j{fill:#080808;opacity:.29;}.k{fill:#a6c9f2;}.l{fill:ivory;}</style></defs><g id="a"/><g id="b"><g id="c"><g><g><path class="k" d="M238.44247,84.99731c-.55005-2.77026-2.36621-3.39258-3.38892-5.16675-.68237-1.18347-.48389-2.9563-1.41724-3.85986-1.43335-1.38745-3.18213-2.52185-5.30493-3.64014-1.36035-.71643-5.08325-.24341-6.27783-.5-1.68848-.36255-2.63061-1.62468-4.55591-1.61938-.66174,.00182-1.97939,.32339-2.27743,.4528,3.30615-5.75391,5.85468-9.0404,8.3537-15.47692,4.92307-12.67957,5.18017-24.79929,5.31297-31.68974,.14558-7.55415,.44444-14.05556-4.88889-19.11111-2.65321-2.51502-4.43267-3.89106-10.11111-3.38889-4.08333,.36111-9.375,1.75-15.70833,8.875-3.99943,4.49936-5.56944,7.73611-6.79167,13.01389-1.23298,5.32423-2.11111,20.55556-2.33333,27.77778-.24148,7.8481-1.83333,16.72222-5.61111,23.27778-1.06292,1.84448-2.80002,5.51332-2.85837,6.98158-.33252-.20276-.67456-.401-1.03052-.59277,.81396-3.46851,.97803-7.51929,.75-8.61108-.45923-2.19824-1.61768-4.77197-2.22217-6.41663-.59253-1.61194-1.30566-3.69446-1.69458-5.75-.24731-1.30762,1.7771-3.71277,1.77783-5.16663,.00073-1.5105-.88892-3.5-1.59033-4.05566-1.34741-1.06714-3.77234-1.7644-4.68787-3.07178-.38489-.54956-.77454-1.0813-1.16614-1.59473-.90527-1.18677-1.18237-3.927-2.22559-4.80786-2.06726-1.74561-3.61694-2.25989-6.13232-2.56299-.71948-.08667-2.21985,.24585-2.95459,.24585-.81702,0-1.73389-.65076-2.46875-.66113-1.1709-.0166-2.24963,.00598-3.27563,.23389-1.38989,.30872-2.68274,.99438-3.97583,2.47095-.65479,.7478-.63721,2.01245-.86328,2.47705-.38647,.79468-2.08325,.70728-2.4165,.875-1.41382,.71094-1.9585,2.08325-2.125,3.91675-.09644,1.05884-.77271,3.97473-.86816,6.11792-2.7406-.68213-5.26855-2.41687-8.64001-2.45898-10.76318-.13464-18.91272,3.84973-23.62659,9.52234-5.45972-1.7113-11.41772-2.68518-17.69312-2.87781-.32812-6.09229-3.30774-9.6012-7.65137-13.32446-3.7666-3.22852-8.66675-7.33325-14.25854-7.83325-6.47241-.57874-9.57471,.91675-12.07471,4.33325-2.89014,3.94971-3.66675,8.24072-3.66675,13.66675,0,3.58325,3.1897,5.37061,4.16675,7.83325-1.64038,.76611-8.474,2.4873-13,5.25-6.41675,3.91675-8.40234,7.58325-10.71594,9.05847-1.01099-1.00623,2.27142-4.61395,.92126-6.16541-5.18403-5.95697-20.4458-4.85608-28.24304,2.24426C-.2078,81.54138-.87003,95.69861,7.45346,104.83899c.43359,.4762,1.6001,1.65833,4.1001,2.43616-8.14868,15.15942-14.83252,30.44946-7.77783,43.72217,3.8999,7.33704,12.37769,12.39331,19.94458,16.27783,4.98657,8.21069,30.60352,10.52649,41.33325,10.05542,7.28931-.31982,22.9563,.04395,30.83325-1.6665,7.52881-1.63501,19.09412,2.93237,27.89819,1.86755,1.12231-.13574,2.24927,.05029,3.25854,.55981,6.04346,3.0509,14.76855,3.78992,23.79358,1.44446,12.74548-3.31213,21.96716-11.70581,22.87708-20.01611,.65479,.79761,.7627,1.13184,1.72827,1.43579,1.5,.47229,6.43054-1.70825,6.43054-1.70825,0,0,7.79724-4.27026,7.79163-4.19446,0,0,8.40454-4.59216,8.94446-5,1.59021-1.20129,8.88757-4.19348,13.55554-13.05554,2.26416-4.29834,10.83228-17.53735,11.66675-23.11108,.2915-1.94739,1.43433-4.46094,3.55542-5.93066,1.25-.86597,3.29712-.8479,4.47925-1.5415,1.58594-.93066,3.48022-3.28101,4.10425-4.25,.17554-.27271,.75586-1.82556,.53564-4.12512-.16333-1.70874-1.37769-2.95642-1.34131-4.59717,.04077-1.82483,3.7832-3.72791,3.6731-5.28601-.08228-1.16748-.21167-2.23352-.39526-3.15845Z"/><path d="M239.09336,84.81787c-.31159-1.35797-.9452-2.45224-1.88751-3.46853-.95335-1.02821-1.69431-1.83439-2.01236-3.24232-.3359-1.48693-.73083-2.37455-1.91979-3.36893-1.23778-1.03522-2.6022-1.90111-4.01548-2.67512-2.22929-1.2209-4.54515-.49774-6.93206-.86953-1.39334-.21703-2.48911-1.28773-3.8791-1.56414-1.10428-.2196-2.35864-.00129-3.40628,.38379l.76228,.99157c1.6385-2.83896,3.42777-5.58968,5.03162-8.44851,1.7022-3.03415,3.09915-6.2159,4.23967-9.50178,2.29296-6.60608,3.55011-13.53012,4.0991-20.49085,.21052-2.66921,.31091-5.3446,.36758-8.02105,.06396-3.02108,.19427-6.06292-.0558-9.07871-.45163-5.44651-2.66232-10.12458-7.14665-13.39583-3.63363-2.65068-8.94037-2.16574-13.02723-.87021-5.58701,1.77108-10.10213,6.04121-13.60331,10.59779-3.21199,4.18023-4.83109,9.05138-5.54554,14.22794-.74645,5.40839-1.09746,10.87787-1.40728,16.32582-.37772,6.64186-.32882,13.30708-1.74044,19.84255-.82899,3.83805-2.05023,7.62521-3.96173,11.06813-1.27363,2.29402-2.93015,4.98865-3.14399,7.6634l1.01569-.58284c-.34062-.20403-.68284-.40101-1.03052-.59277l.3102,.76228c.61432-2.72033,1.17606-5.84976,.79958-8.64553-.40984-3.04353-2.05679-5.9257-2.99875-8.82961-.43194-1.3316-1.2688-3.14892-.76914-4.52557,.45361-1.24978,1.36195-2.3677,1.56309-3.70645,.17382-1.15691-.23331-2.42361-.72144-3.45903-.57254-1.21446-1.39957-1.84119-2.5655-2.46662-1.19946-.64341-2.4522-1.15428-3.27448-2.28668-.4077-.56146-.88388-1.10441-1.21506-1.71558-.3745-.69112-.55999-1.4831-.81777-2.22146-.41256-1.18168-.86736-2.01546-1.8703-2.78607-1.0995-.8448-2.30789-1.48723-3.65204-1.84262-1.12554-.29759-2.29907-.48372-3.45946-.35747-.59028,.06423-1.21925,.23318-1.81536,.19675-.85993-.05254-1.60066-.59615-2.46875-.66113-2.88162-.2157-6.03958,.62356-7.83431,3.03915-.37324,.50235-.5572,1.05673-.69386,1.66034-.19081,.84278-.36468,1.07333-1.24921,1.22247-1.18131,.19919-2.0599,.65524-2.71422,1.73198-.74966,1.23363-.76725,2.68949-1.00525,4.07113-.28826,1.67339-.60416,3.34334-.70257,5.04149l.85444-.65089c-3.16202-.84046-5.89994-2.46709-9.26031-2.48632-3.30658-.01892-6.65041,.37445-9.84403,1.24064-5.30584,1.43907-10.25382,4.25213-13.819,8.48263l.65674-.17359c-5.79692-1.79334-11.81411-2.69684-17.87256-2.90192l.675,.675c-.31024-4.84035-2.4618-8.74768-5.92591-12.06927-3.67568-3.52445-7.95396-7.14749-12.79674-8.89753-4.0004-1.44562-9.55346-1.66484-13.28978,.6715-3.7075,2.31832-5.7977,6.89357-6.52584,11.05451-.45436,2.59644-.98846,5.90544-.01733,8.42799,.85437,2.21925,2.88256,3.66873,3.81313,5.82902l.24216-.92353c-1.83856,.82505-3.86149,1.30616-5.75702,1.98585-2.56629,.9202-5.12288,1.95635-7.4491,3.39169-2.39838,1.47985-4.61395,3.23246-6.61709,5.21364-1.25702,1.24324-2.40578,2.73605-3.89273,3.7173l.81798,.10555c-.32154-.40275,.80567-2.30642,.96669-2.71241,.34186-.86198,.69142-1.90337,.33908-2.81881-.65842-1.71067-3.11022-2.86596-4.6862-3.47595-4.84998-1.87722-10.59791-1.44886-15.49684,.00398-5.45772,1.61855-10.17143,4.84909-13.27208,9.67034-3.08422,4.7957-4.24029,10.66527-3.31474,16.28017,.94977,5.76182,4.23715,12.37768,10.10655,14.31698l-.4034-.99157C6.28774,115.66262,1.52549,124.93681,.35936,134.9096c-1.02792,8.79076,1.73438,17.21118,8.25511,23.27008,3.10532,2.88539,6.6857,5.22964,10.3638,7.3142,1.48595,.84216,3.63382,1.51207,4.67132,2.85603,.6453,.83591,1.42995,1.53482,2.27862,2.15878,4.84478,3.562,11.41473,4.89406,17.21417,5.89501,6.31576,1.09006,12.76668,1.6714,19.17752,1.65962,6.6997-.01231,13.43694-.19508,20.13195-.44032,3.68438-.13496,7.38076-.33143,11.03328-.85454,1.65138-.23651,3.27076-.66448,4.94044-.75526,1.9671-.10695,3.94321,.05863,5.89498,.29691,4.32609,.52815,8.59465,1.46217,12.93681,1.87191,2.05461,.19388,4.11715,.25963,6.17404,.06421,1.33096-.12645,2.35966,.02103,3.58645,.58378,.8772,.40238,1.75667,.78438,2.66912,1.10172,8.67123,3.01576,18.72689,1.7937,27.07429-1.66986,6.71147-2.78477,13.54676-7.52748,16.48265-14.43295,.58937-1.38624,.96546-2.81455,1.14531-4.30915l-1.1523,.4773c1.27386,1.59182,2.50306,1.91977,4.46104,1.44242,1.50091-.36591,3.03442-.90658,4.43154-1.57265,2.27035-1.08238,4.43963-2.42365,6.65977-3.60718,.38072-.20296,.76223-.40364,1.14744-.59784-.54454,.27452,.31732-.16389,.50563-.2652,1.35917-.73122,2.70688-1.48491,4.05726-2.23217,2.1004-1.16229,4.14774-2.38688,6.21079-3.60803,3.55674-2.10529,6.76161-4.68416,9.30137-7.9693,2.46838-3.19281,4.28828-6.98935,6.32462-10.47307,2.28471-3.90864,4.58647-7.84596,6.42823-11.98786,.6847-1.53982,1.35161-3.1284,1.6718-4.79022,.48741-2.52965,1.69967-5.40397,4.35773-6.2925,1.22892-.4108,2.55264-.48528,3.66536-1.20491,1.09871-.71057,2.02556-1.70736,2.86009-2.7038,1.4441-1.72428,2.02512-3.33978,1.8951-5.64603-.08693-1.54185-.88906-2.68739-1.2528-4.14281-.36298-1.4524,.61672-2.23557,1.57319-3.16989,.68557-.66969,1.5937-1.42547,1.88171-2.38186,.35003-1.1623-.10459-2.81035-.32342-3.97631-.16005-.85282-1.4614-.49165-1.30178,.35888,.18502,.98586,.68639,2.64441,.15313,3.57249-.51544,.89706-1.50428,1.55517-2.19773,2.30964-1.48329,1.61382-1.40751,3.02181-.56898,4.99681,.82605,1.9456,1.15818,4.50672-.17493,6.31897-.68391,.92972-1.46971,1.81064-2.32697,2.58347-1.07653,.9705-2.18568,1.24658-3.55321,1.59467-2.25802,.57477-3.90063,2.10027-4.95208,4.16653-.84145,1.65358-.97849,3.47224-1.56946,5.20612-1.34041,3.9327-3.48737,7.62494-5.53314,11.22263-1.79513,3.15691-3.72843,6.241-5.44963,9.4392-2.30164,4.27671-5.52264,7.85339-9.56755,10.54366-4.07777,2.71212-8.49265,4.82929-12.69777,7.32305,.48005-.28468,.13903-.07455-.09795,.04215-.17009,.08376-.33837,.17072-.50657,.25825-.6159,.3205-1.22604,.65244-1.83704,.98214-1.51619,.81816-3.02877,1.643-4.5406,2.46918-.84165,.45994-1.67596,.81996-2.58161,1.15472-.95947,.35465-1.94274,.69714-2.94985,.88887-1.28275,.24421-1.85126-.21102-2.64815-1.20683-.41204-.51488-1.0916-.02711-1.1523,.4773-.8621,7.16442-7.22582,12.59554-13.20078,15.80326-8.00527,4.29771-17.92684,6.1686-26.86096,4.14164-2.02934-.46042-3.89484-1.19245-5.7851-2.04404-1.85347-.83501-3.61951-.46094-5.56987-.41054-4.25985,.11009-8.48959-.69597-12.6765-1.37305-3.71698-.60109-7.56432-1.28169-11.33993-.91157-1.45886,.14301-2.8836,.50993-4.33341,.72033-1.74829,.25371-3.51069,.41193-5.2723,.53807-7.14648,.51172-14.3126,.40646-21.46949,.61858-5.67283,.16814-11.2954-.00037-16.9409-.63765-6.29121-.71017-12.81024-1.77674-18.67588-4.2565-2.15827-.91243-4.40461-2.07568-5.95739-3.87888-.31207-.3624-.53189-.8322-.89571-1.13713-.71548-.59966-1.87643-.97517-2.69955-1.42147-1.83932-.99727-3.65232-2.04493-5.41154-3.1782-3.45757-2.22732-6.77053-4.81138-9.35141-8.04082-2.76458-3.45929-4.45109-7.74084-4.94522-12.13319-1.07838-9.58578,2.84279-19.10028,6.97821-27.5232,1.12133-2.2839,2.30209-4.53774,3.50493-6.77959,.21352-.39795,.01918-.85195-.4034-.99157-4.99092-1.64904-7.79869-7.21259-8.90288-12.04417-1.1971-5.23814-.36481-10.86451,2.29031-15.53427,2.69246-4.73543,7.00489-8.06193,12.13897-9.78428,4.58971-1.53973,9.87099-2.09665,14.56949-.7022,1.52111,.45144,5.25783,1.79219,4.95695,3.82637-.23395,1.5817-2.2391,3.68956-1.00878,5.23063,.17596,.22041,.58959,.25626,.81798,.10555,1.43444-.9466,2.55303-2.30091,3.75167-3.51349,2.04224-2.06598,4.28331-3.89042,6.75815-5.41745,2.43094-1.49994,5.10373-2.55092,7.79172-3.49093,1.79472-.62763,3.67715-1.10701,5.4144-1.8866,.3599-.16151,.3731-.61956,.24216-.92353-.71858-1.66816-2.12463-2.8803-3.08481-4.39606-1.314-2.07431-1.05026-4.51934-.83269-6.866,.389-4.19574,1.90593-8.74688,5.24273-11.53484,3.10565-2.59483,8.11799-2.61534,11.84005-1.62287,4.63814,1.23675,8.49672,4.5165,12.03709,7.60941,3.86866,3.37971,6.68602,7.19581,7.02442,12.47549,.02396,.37374,.29016,.66197,.675,.675,5.94377,.20119,11.82709,1.0945,17.51367,2.8537,.21315,.06594,.50885,.0019,.65674-.17359,3.42556-4.06482,8.12209-6.75245,13.22329-8.13544,3.08403-.83611,6.29186-1.21189,9.48515-1.19241,3.22523,.01967,5.8661,1.63131,8.90142,2.43809,.4434,.11786,.82915-.21444,.85444-.65089,.08508-1.46817,.34417-2.91174,.59733-4.35802,.19233-1.09879,.21389-2.31119,.5922-3.35933,.24213-.67084,.70645-1.44272,1.41825-1.70371,.32844-.12043,.73579-.09488,1.07812-.16512,.79855-.16384,1.49016-.51518,1.76725-1.32675,.21068-.61705,.17625-1.29342,.53303-1.86651,.39821-.63963,1.13175-1.20845,1.7523-1.60419,1.28143-.8172,2.75549-1.01218,4.24943-1.03544,1.36003-.02118,2.49091,.7539,3.85061,.62975,1.30124-.11881,2.42353-.27062,3.7289-.00704,1.29887,.26226,2.47123,.75817,3.55063,1.52712,1.21678,.86683,1.54228,1.88227,2.00859,3.25459,.72156,2.12352,2.07557,4.13106,4.04759,5.25986,1.02242,.58524,2.45882,1.02438,3.19384,1.99245,.73285,.96522,1.25013,2.57018,.92127,3.75138-.31218,1.12128-1.05587,2.09537-1.4446,3.19186-.40672,1.14725-.09807,2.19205,.20395,3.33879,.86716,3.29257,2.45655,6.33659,3.32529,9.62041,.74917,2.83187,.06803,6.25637-.56093,9.04152-.06486,.28722,.04119,.61391,.3102,.76228,.34768,.19176,.6899,.38874,1.03052,.59277,.46765,.28013,.97625-.08962,1.01569-.58284,.19209-2.40285,1.81485-4.92001,2.95967-6.98203,1.48483-2.67441,2.5753-5.55993,3.38971-8.5042,1.60421-5.79954,1.97529-11.69887,2.22742-17.67657,.22025-5.22187,.53421-10.44394,1.00452-15.64953,.41733-4.61914,.87349-9.29984,2.5707-13.65785,1.10164-2.82873,2.82773-5.31861,4.80605-7.60305,2.13643-2.46702,4.53004-4.7627,7.33476-6.45878,3.75463-2.27052,9.00423-3.63458,13.35098-2.50529,2.06896,.53752,3.72212,2.01322,5.16795,3.52465,1.97542,2.06505,3.16294,4.64411,3.71118,7.43172,.58404,2.96962,.51639,6.04134,.4613,9.05242-.04377,2.39262-.08562,4.78586-.20026,7.17636-.34627,7.22043-1.38163,14.41201-3.51884,21.33101-1.15591,3.74212-2.61637,7.37741-4.49274,10.818-1.68887,3.09679-3.63128,6.04875-5.3941,9.1031-.27522,.47686,.18943,1.20214,.76228,.99157,1.06826-.39266,2.27664-.59247,3.36836-.19749,1.1279,.40807,2.06766,1.18792,3.27584,1.39356,2.18767,.37237,4.49764-.39697,6.53298,.71772,1.36485,.74748,2.70212,1.57186,3.88602,2.58724,.58146,.49869,.99194,.93112,1.21173,1.6796,.17144,.58385,.23475,1.19454,.42,1.77535,.3177,.99605,.9511,1.76615,1.65976,2.51496,.97833,1.03375,1.71104,1.96935,2.03723,3.39094,.19422,.84644,1.49614,.48818,1.30178-.35888Z"/></g><g id="d"><path class="l" d="M228.79243,27.66613c.28584,1.51318,.0853-2.93735,.10904-4.16882,.14558-7.55415,.44444-14.05556-4.88889-19.11111-2.65321-2.51502-4.43267-3.89106-10.11111-3.38889-4.08333,.36111-9.375,1.75-15.70833,8.875-3.99943,4.49936-5.56944,7.73611-6.79167,13.01389,0,0,.125,1.00694,1.27778,.44444,.83696-.40839,12.16667-9.11111,20.72222-9.33333,0,0,12.33748-2.4957,15.39096,13.66882Z"/><path class="l" d="M176.71686,60.97373c.25282-.41476-.22576-.94665-.31548-1.42088-.24731-1.30762,1.7771-3.71277,1.77783-5.16663,.00073-1.5105-.88892-3.5-1.59033-4.05566-1.34741-1.06714-3.77234-1.7644-4.68787-3.07178-.38489-.54956-.77454-1.0813-1.16614-1.59473-.90527-1.18677-1.18237-3.927-2.22559-4.80786-2.06726-1.74561-3.61694-2.25989-6.13232-2.56299-.71948-.08667-2.21985,.24585-2.95459,.24585-.81702,0-1.73389-.65076-2.46875-.66113-1.1709-.0166-2.24963,.00598-3.27563,.23389-1.38989,.30872-2.68274,.99438-3.97583,2.47095-.65479,.7478-.63721,2.01245-.86328,2.47705-.38647,.79468-2.08325,.70728-2.4165,.875-1.41382,.71094-1.9585,2.08325-2.125,3.91675-.09644,1.05884-.77271,3.97473-.86816,6.11792-1.23193-.30664-2.4209-.82593-3.66272-1.30859-1.0387-.40356-2.11438-.78174-3.28333-.98828-.54272-.09583-1.10547-.15479-1.69397-.16211,0,0,4.41785,2.20898,3.11218,3.93127-1.30542,1.72229-5.27771,3.27771-6.44434,5.41663-1.16675,2.13892-3.65346,7.87892-3.54238,11.37892,.11108,3.5-3.27778-.99-3.88889,.92666-.47374,1.48581-1.90211,4.16659-.56873,10.72225,1.33325,6.55554,4.77783,1.11108,7.77783,8.88892,.33594,.87109,.10396,3.39323-.67382,4.22656,0,0-2.04848,3.05116-4.88182,4.71783-2.69607,1.58592-17.95771,4.34444-19.46438,4.63081s-17.81396,3.31982-19.64673,4.64697c-2.54724,1.84448-4.55218,4.7699-7.41827,7.15076l-3.38445,1.47524c-.8201,.35747-1.70378,.54763-2.59811,.52488-4.06334-.10337-9.37102-1.35366-10.81765-1.94912-.35398-.14571-1.33468,.01968-1.57319,.31909-.92213,1.15756-2.17271,3.90641-4.13305,7.15302-1.0661,1.76562-1.9465,3.63493-2.54988,5.60722-1.28913,4.21383-2.60874,10.46892-9.19203,15.38555-6.81559,5.09011-7.91671,6.00004-17.16675,8-10.44738,2.25884-18.09192-6.21777-18.09192-6.21777l-.03455-.03027c-2.14819-1.88708-3.80725-4.26208-5.00122-6.86011-1.17725-2.5614-3.15002-9.1001-3.15002-9.1001,0,0-2.55558,11.33329,2.33325,18.54163,2.8195,6.33333,12.37769,12.39331,19.94458,16.27783,4.98657,8.21069,30.60352,10.52649,41.33325,10.05542,7.28931-.31982,22.9563,.04395,30.83325-1.6665,1.18652-.25768,2.4733-.3613,3.83373-.3572,0,0,.95802,.23212,1.99969-1.05955s1.25-4.25,5.83333-8.08333,5.91667-5.875,13.20833-10.16667c7.29167-4.29167,8.375-5.45833,15.66667-5.41667,7.29167,.04167,11.79167-.58333,14.70833,3.20833,0,0,3.375,4.5,5,7.45833s5.91667,5.54167,5.70833,9.04167c-.20833,3.5-2.68458,6.14505-2.68458,6.14505,8.28993-4.1424,13.85702-10.55275,14.55355-16.91425,0,0-.16064-9.02246-9.66064-11.68913,0,0-1.875-.45833,2.15278-2.59722s11.84722-7.79167,14.29167-11.34722c2.44444-3.55556,2.30556-9.97222,.47222-11.88889,0,0,2.16667-3.5,3.16667-9.33333s.25-9.66667,4.5-14.33333c0,0,.5-5.83333-1.41667-10.58333-1.91667-4.75-6.25-6.33333-7.25-6.58333s-9.75-.35205-12.08333,.40731c-2.33333,.75936-2.5-2.07397-6-3.57397s-9.58333-.33333-8.5-1.66667c1.08333-1.33333,5.33333-1.08333,7.08333-7,1.75-5.91667-2.90278-11.80556-4-12.22222-1.09722-.41667-3.13889-.94444-2.69444-1.29167s-1.55556,.23611,.72222-1.59722c2.27778-1.83333,4.11111-1.72222,5.61111-1.44444s6.05556,1.77778,8.77778,4.55556,4.45709,4.48714,6.22222,4.38889c0,0,.96414,.28617,1.59318-.7458Z"/><path class="l" d="M204.84591,82.08065c.61111-3.22222,.55556-7.77778,5.11111-9.5,4.55556-1.72222,5.27786-1.91659,5.27786-1.91659,.2981-.12952,1.61548-.45105,2.27734-.45288,1.92529-.00537,2.86743,1.25684,4.55591,1.61938,1.19458,.25659,4.91748-.21643,6.27783,.5,2.1228,1.11829,3.87158,2.25269,5.30493,3.64014,.93335,.90356,.73486,2.67639,1.41724,3.85986,1.02271,1.77417,2.83887,2.39648,3.38892,5.16675,.18359,.92493,.31299,1.99097,.39526,3.15845,.11011,1.55811-3.63232,3.46118-3.6731,5.28601-.03638,1.64075,1.17798,2.88843,1.34131,4.59717,.22021,2.29956-.36011,3.85242-.53564,4.12512-.62402,.96899-2.51831,3.31934-4.10425,4.25-1.18213,.6936-3.22925,.67554-4.47925,1.5415,0,0-.72214-.73603,.61119-2.34714,1.33333-1.61111,1.27778-3.61111-.33333-5.27778-1.61111-1.66667-2.79072-3.33333-5.11758-6.55556-2.32686-3.22222-3.99353-4.94444-7.71575-6.27778s-9.27778-2.67848-10-5.25591"/></g><g id="e"><path class="l" d="M55.30319,105.18213c.26538,.06201,.53015,.11523,.79199,.14856,.75146,.0957,2.78601,.35498,4.45837-.91675,1.44202-1.09656,1.79858-2.71069,2.08337-4,.21973-.99475,1.32593-6.00256-1.83337-8.83325-1.65588-1.48364-3.70312-1.66992-4.58337-1.75-.94458-.08594-3.02124-.2749-4.83325,.91663-2.51221,1.65198-3.24792,5.1239-2.75,7.75,.19495,1.02844,.5896,1.95837,1.11731,2.78235-3.26794-1.71106-6.86609-2.6991-10.45068-2.6991-11.0918,0-20.08325,8.73047-20.08325,19.5,0,.13623,.01807,.26794,.021,.40356l-.01367,.01477c-.40674,.47327-1.36914,1.67639-2.01306,3.48401-1.77344,4.97803,.64807,9.54443,1.42236,10.84778,.80176,1.34973,1.78369,3.00256,3.83325,4.08325,2.82568,1.48999,6.65515,1.35181,9.33337-.66663,.02673-.02014,.04565-.04395,.0719-.06433,1.66492,.6449,3.43579,1.08752,5.2832,1.28333,.98059,.10388,1.7312,.11267,2.1449,.11426,9.73096,.03796,14.59644,.05701,18.49084-2.41699,.8584-.54529,4.948-3.14331,6.02356-7.82996,.38464-1.6759,.39966-3.68811-1.09766-8.0863-1.17322-3.44604-3.31958-8.48828-7.41711-14.06519Z"/><path class="l" d="M123.38693,93.74731c-1.04333-8.53491-9.63489-14.96948-13.33582-15.14917-2.60107-2.03406-6.24072-3.98145-10.91418-4.10083-6.48083-.16565-11.18958,3.2771-13.54846,5.46191-.91248-1.54395-2.49866-2.66113-3.81677-3.2135-4.24634-1.77942-10.69641,.078-12.05151,4.75159-1.00525,3.46716,.96875,7.87976,4.25,9.08337,2.10535,.77222,4.09961-.01465,5.4281-.53882l.01587-.00671c-1.83228,7.30981,3.71973,16.15479,4.36719,17.15894,2.09937,3.25586,4.26282,6.61108,8.54529,8.49609,8.56995,3.77209,17.42639-1.95251,18.89355-2.94287,1.24243-.83862,4.08923-2.76562,6.29187-6.05334,.76331-.38123,1.44922-.82629,1.96741-1.23071,4.77722-3.72754,4.02112-10.78662,3.90747-11.71594Z"/></g><g id="f"><path class="h" d="M6.14206,103.26147c-6.91162-9.12695-5.83899-22.1853,2.79053-30.04358,7.79724-7.10034,23.05896-8.20129,28.24304-2.24426,1.3501,1.55151-1.93225,5.15918-.92126,6.16541,0,0-.20081,2.08044-2.03418,3.19165-1.83325,1.11108,1.44446-3-1.66663-3.61121-1.40649-.09827-3.4071-.09949-5.72217,.38892-5.1958,1.09631-8.53943,3.93445-10.81824,5.9165-1.93469,1.68274-5.85923,5.44924-8.34851,11.75024-1.77775,4.49995-1.49316,6.45984-1.52258,8.48633Z"/><path class="h" d="M93.45492,58.15503c-.32812-6.09229-3.30774-9.6012-7.65137-13.32446-3.7666-3.22852-8.66675-7.33325-14.25854-7.83325-6.47241-.57874-9.57471,.91675-12.07471,4.33325-2.89014,3.94971-3.66675,8.24072-3.66675,13.66675,0,0,.52778-4.61111,2.63889-5.05556,2.11111-.44444,11.11111,.27778,19.83333,4.61111,8.72222,4.33333,15.17914,3.60216,15.17914,3.60216Z"/><path class="h" d="M228.88681,23.49731c.5,6.86108-.29004,14.2843-2.84448,24.04163l-.32291,1.11271-.74945,2.58226c-.0022-.00085-6.60025-16.31057-12.08316-17.2366-2.04761-.34583-3.30908,1.0199-6.66211,2.25439-4.24951,1.56458-5.41394,1.41858-6.16077,1.43188-1.69543,.03015-2.41223-.26758-3.9895,.14709-1.13049,.29724-1.97168,.76819-3.47925,1.625-1.33093,.75635-2.38562,1.46716-3.11218,1.98523-.01306-.57458-.02087-1.19617,.03491-1.85535,.05469-.64636,.1394-1.32104,.21521-2.026-.08618-5.46936,.71619-10.44934,1.65381-14.67334,0,0,8.91663-11.47229,19.91663-5.13892,9.17676,5.28369,10.34985,8.18933,12.3252,8.62024,.20654,.04504,.70972,.06995,1.34155-.03687,2.27197-.38403,3.56079-2.27002,3.9165-2.83337Z"/><path class="h" d="M222.88461,56.97693c-2.37744,6.21667-6.76169,12.14229-6.76169,12.14229-5.05591-10.95276-16.73599-8.95527-20.40274-8.45527-3.66663,.5-9.44824,6.85059-9.44824,6.85059,.32544-1.89734,.72009-3.87915,1.19824-5.93384,.32629-1.4021,.67212-2.755,1.03162-4.05737,.30737-.78748,3.5061-8.62024,11.05176-10.19263,.45667-.09521,6.20923-1.20703,10.83325,2.08325,3.92603,2.7937,4.39771,6.88171,8.3335,7.83337,1.68262,.40686,3.21021,.0498,4.16431-.27039Z"/><path class="h" d="M213.8196,134.07278c-.69037,1.18277-1.26579,2.18573-1.65496,2.92454-.92941,1.76447-1.96306,3.29624-3.03514,4.62752,0,0,.20183-4.68307-4.46484-8.57196-4.66667-3.88889-5.33333-11.94444-3.38889-13.88889,1.94444-1.94444,9.61845,1.29691,10.66667,6.61111,.29861,1.51389,.09028,3.76389,.84028,4.84722s1.03688,3.45046,1.03688,3.45046Z"/><path class="h" d="M223.83139,113.88623c-.04081,.27261-.10013,.56355-.1763,.87089-.485,1.9569-1.65344,4.57843-3.08135,7.36305,0,0,.18815-3.43535-2.06185-4.64369-2.25-1.20833-3.45833-1.75-5.33333-1.8125s-10.97917-.89583-11.1875-6.9375c-.20833-6.04167,10.33333-4.91667,11.5625-4.54167s7.73113,5.12358,8.85417,7.29167c1.5,2.89583,1.42367,2.40975,1.42367,2.40975Z"/><path class="h" d="M131.95355,179.9114c-1.77524-.45917-3.42372-1.06965-4.91-1.81997-1.00928-.50952-2.13623-.69556-3.25854-.55981-1.3859,.16762-2.84021,.19567-4.33644,.13033,0,0-1.64666-3.2688,0-5.4563,1.64666-2.1875,4.02166-2.08333,6.66749-1.27083s5.20999,4.46164,5.70833,5.45833c.58333,1.16667,.12916,3.51825,.12916,3.51825Z"/><path class="h" d="M150.83713,179.53589c-.5824,.15137-8.8335,1.48914-12.11926,1.35034,0,0,1.06482-2.38892,.79407-3.01392-.27087-.625-3.66675-1.875-4.125-4.4375-.45837-2.5625,1.14575-7.8125,4.16663-7.375,1.4729,.21338,2.45044,.59497,3.19849,1.09924,.28857,.19458,.87219,.62146,1.90564,1.94238,1.73987,2.22388,3.04773,3.89563,3.3125,6.22925,.13379,1.17883-.08618,1.75525,.42126,2.58118,.59143,.96252,1.6416,1.40247,2.44568,1.62402Z"/></g><g><path class="l" d="M85.38693,51.33069c-.29602,1.1626-1.88611,2.03101-3.32922,2.13171-3.05334,.21313-3.81885-3.12366-7.75415-3.75671-1.98889-.31995-2.10876,.48157-4.91663,.20825-1.9613-.19092-5.56372-.93835-5.68311-2.24194-.10754-1.17517,2.62122-2.73779,5.22473-2.96631,1.80005-.15808,2.12659,.44568,5.16663,.875,3.75684,.53052,4.14392-.26636,6.20837,.41663,2.7572,.91211,5.55347,3.48718,5.08337,5.33337Z"/><path class="l" d="M24.50497,73.09387c-.57312-1.49609-6.57678-1.64905-11.11804,.90344-3.84644,2.16199-5.46509,5.60242-6.75,8.33337-1.1051,2.34875-2.21997,4.71851-1.14587,6.12561,1.08899,1.42651,3.96399,1.2561,5.84192,.35266,1.94946-.93787,2.88037-2.69263,4.05396-4.97827,2.14319-4.17419,1.37549-5.79675,3.16663-6.91675,1.71704-1.07361,3.4248-.20911,5-1.83325,.23792-.24524,1.22766-1.26587,.95142-1.98682Z"/></g><g><path class="j" d="M79.86459,105.65356c-.56396,1.44177-2.80176,.76074-7.31104,2.45483-4.84546,1.82043-6.1543,4.06921-7.55554,3.33337-1.17151-.61511-1.00989-3.49036-.68652-9.24072,.24438-4.34619,.70166-5.97961,2.0199-6.98157,1.12122-.85217,2.39075-.88708,2.66663-.88879,1.5177-.00977,2.87952,.78967,6,4.22217,3.56299,3.91931,5.34448,5.87903,4.86658,7.10071Z"/><path class="j" d="M120.06762,140.50951c-.80957,1.14087-1.59998,2.24658-2.80554,3.55554-.74475,.80859-4.55896,4.85522-10.77771,7.44446-6.52356,2.71606-7.99731,.79761-16.72107,2.51086-9.68713,1.90247-15.5719,6.32397-16.05676,5.48914-.34619-.59595,2.59192-2.95312,6.66675-6.22229,4.07788-3.27161,6.1167-4.90735,7.66663-5.77771,8.2959-4.65857,12.92712,.82849,21.55554-3.11121,4.95959-2.26453,8.76416-6.46887,10.77783-8.66663,3.48047-3.79858,5.08606-6.87415,5.44446-6.66663,.47595,.27563-1.87085,5.97803-5.75012,11.44446Z"/><path class="j" d="M160.66472,67.58069c-.66382,2.91248-2.9574,4.48877-6.16675,6.69446-1.45068,.99707-2.65955,1.82776-4.5343,2.32715-1.56079,.41577-3.34668,.28479-6.85461,.0061-4.82788-.38367-5.32849-.77246-5.6189-1.15466-1.55005-2.04053,.73315-5.92981,1.10107-6.5564,.79187-1.34888,1.78137-2.42944,7.07336-5.90002,7.03503-4.61365,8.78589-4.99915,10.38892-4.5,1.27966,.39844,2.09119,1.24121,2.55554,1.72217,1.88586,1.95337,2.62085,4.88135,2.05566,7.36121Z"/></g><g><path class="g" d="M139.72035,73.22999c-.24371-.84136,.44542-1.83789,.94754-2.56388,.6121-.88508,1.05249-.98244,1.17055-1.00326,.4562-.08034,.67958,.17599,1.28188,.39018,1.18207,.42031,1.61597-.14733,2.73117,.16717,.20146,.05683,1.82233,.53262,2.00652,1.50489,.19926,1.05164-1.30796,2.23787-2.52493,2.72468-2.17994,.87198-5.1983,.21089-5.61273-1.21979Z"/><path class="g" d="M152.01031,65.19005c-.33973-.23832-.84075,.77976-2.59168,1.3376-.53249,.16962-1.25334,.31989-1.83935,.9615-.18493,.20244-.3352,.37132-.29429,.53702,.13876,.56201,2.45966,1.02616,3.80571-.07716,1.03853-.85128,1.31176-2.48391,.91962-2.75897Z"/><path class="g" d="M154.5112,68.07654c-.26587-.27649-1.05811,.79016-2.56006,.74548-.62476-.01855-1.02881-.21716-1.52258,.05029-.33105,.17932-.71985,.57751-.65479,.91992,.12891,.67871,2.07214,1.32812,3.42822,.59851,1.08118-.58167,1.61279-1.99854,1.3092-2.31421Z"/><path class="g" d="M154.55099,71.06274c-.23645-.29895-1.1438,.69568-2.62024,.49426-.56262-.07678-.90881-.28455-1.41882-.10132-.38672,.13892-.86792,.50281-.84216,.8562,.04871,.66895,1.92578,1.52576,3.35425,.92749,1.13232-.47424,1.79858-1.83313,1.52698-2.17664Z"/></g><g><g><path class="i" d="M239.238,84.778c-.31728-1.38274-.96671-2.50002-1.92608-3.53472-.93767-1.01129-1.66105-1.79176-1.97378-3.17613-.34025-1.50619-.75375-2.42764-1.95836-3.43512-1.24779-1.04359-2.62105-1.91826-4.04584-2.69857-2.25493-1.23495-4.57573-.51182-6.98783-.88733-1.38322-.21534-2.47714-1.28442-3.85916-1.56145-1.12981-.22648-2.41278-.01082-3.48595,.38373l.93168,1.21192c1.63849-2.83894,3.42771-5.58967,5.03151-8.44852,1.70833-3.04517,3.11006-6.23983,4.25472-9.53762,2.29732-6.6186,3.55445-13.55683,4.10447-20.53068,.21052-2.66921,.31091-5.3446,.36759-8.02106,.06397-3.02109,.19437-6.06293-.05569-9.07873-.45607-5.5004-2.68968-10.22489-7.22101-13.52532-3.66683-2.67077-9.01873-2.1927-13.14281-.88537-5.62572,1.78336-10.16899,6.07671-13.6929,10.66674-3.2175,4.19093-4.84409,9.0752-5.56066,14.26379-.74878,5.42175-1.10209,10.90418-1.41268,16.36567-.37695,6.62823-.32636,13.28074-1.73506,19.80269-.82632,3.82567-2.04121,7.60041-3.94659,11.0323-1.28859,2.32096-2.94822,5.03388-3.16449,7.73909l1.24139-.71236c-.34062-.20403-.68284-.40101-1.03052-.59277l.37914,.93168c.61803-2.73678,1.1755-5.87249,.80493-8.68541-.4029-3.05838-2.05814-5.95321-3.0041-8.86949-.42213-1.30136-1.26035-3.10007-.76914-4.44582,.45672-1.25127,1.35512-2.36644,1.56309-3.70645,.18573-1.19676-.22999-2.50305-.73656-3.57461-.58325-1.23378-1.43465-1.88496-2.61931-2.52043-1.1873-.63689-2.38217-1.1398-3.22067-2.23286-.97069-1.26539-1.49582-2.40636-2.01771-3.90121-.42043-1.20424-.88803-2.06594-1.90888-2.85226-1.11894-.86188-2.34855-1.51906-3.71823-1.8812-1.13715-.30066-2.32698-.49039-3.49934-.36282-.58859,.06404-1.22104,.23699-1.81536,.19675-.85748-.05806-1.59911-.59675-2.46875-.66113-2.93044-.21695-6.14938,.64785-7.96383,3.11344-.37797,.51361-.5696,1.08056-.70898,1.69617-.18577,.82049-.28458,.97268-1.14444,1.1177-1.22189,.20608-2.12541,.69616-2.80386,1.80091-.76248,1.24158-.78038,2.71373-1.02037,4.10696-.29051,1.68645-.60875,3.36997-.70793,5.08136l1.04432-.79553c-3.17676-.84437-5.9234-2.47236-9.30018-2.49167-3.31918-.01899-6.67814,.37652-9.88391,1.24599-5.32858,1.44523-10.30452,4.27233-13.88519,8.5212l.80268-.21217c-5.80903-1.79708-11.84135-2.70177-17.91243-2.90728l.825,.825c-.31279-4.88013-2.47623-8.82546-5.96984-12.17533-3.69588-3.54382-7.99401-7.17662-12.86293-8.9361-4.03602-1.4585-9.63738-1.66952-13.40536,.68662-3.74009,2.3387-5.85975,6.94388-6.59478,11.14416-.45913,2.6237-.99392,5.95764-.01733,8.50774,.85594,2.23503,2.89248,3.69249,3.82825,5.86485l.29597-1.12876c-1.82608,.81945-3.83839,1.29561-5.72119,1.97073-2.57806,.92442-5.14803,1.96488-7.48494,3.40681-2.40872,1.48623-4.63565,3.24735-6.64745,5.23709-1.24701,1.23334-2.38733,2.72046-3.86237,3.69385l.99976,.129c.01138,.01426,.23164-.71249,.30171-.89819,.213-.56452,.48129-1.10727,.70353-1.66826,.35457-.89499,.69179-1.94954,.33909-2.89857-.65695-1.76772-3.1729-2.95363-4.79097-3.58075-4.87075-1.88779-10.65659-1.45511-15.57659,.00399-5.49582,1.62987-10.23973,4.88485-13.36172,9.73928-3.10713,4.83132-4.26197,10.74107-3.32986,16.39575,.9591,5.81839,4.29058,12.46549,10.21132,14.42175l-.49305-1.21192C6.14441,115.61265,1.37831,124.90809,.20936,134.9096c-1.03169,8.82711,1.752,17.2928,8.29904,23.37615,3.1145,2.89392,6.70513,5.24691,10.39415,7.33765,1.48254,.84023,3.61084,1.503,4.64096,2.83258,.65516,.84562,1.44911,1.55032,2.30897,2.18224,4.85552,3.56834,11.43788,4.90699,17.25,5.91013,6.3289,1.09233,12.79314,1.67679,19.2174,1.66498,6.6997-.01231,13.43694-.19508,20.13195-.44032,3.69808-.13546,7.40713-.33469,11.07315-.85989,1.63807-.23468,3.24461-.65988,4.90073-.74991,1.96723-.10694,3.94348,.05867,5.89538,.29699,4.32638,.52822,8.59504,1.46231,12.9376,1.87197,2.05469,.19383,4.11732,.2595,6.17426,.06391,1.30389-.12398,2.30606,.011,3.50771,.56277,.88869,.40806,1.7805,.79547,2.705,1.11706,8.69516,3.02466,18.78405,1.80214,27.15544-1.66937,6.75588-2.80158,13.62566-7.56947,16.57986-14.5198,.59776-1.40634,.97579-2.85084,1.15823-4.36694l-1.40836,.58336c1.30578,1.63171,2.60161,1.9699,4.60698,1.481,1.51254-.36875,3.06024-.91458,4.46737-1.58777,2.26933-1.08568,4.43919-2.42341,6.65977-3.60718,.38056-.20287,.76696-.39521,1.14744-.59784-.68163,.36302-.0801,.05162,.09795-.04215,.13703-.07217,.27123-.14981,.40768-.22305,1.35986-.72982,2.70692-1.48494,4.05726-2.23217,2.1004-1.16229,4.14774-2.38688,6.21079-3.60803,3.56761-2.11173,6.7827-4.69927,9.33173-7.99275,2.4785-3.20235,4.30489-7.008,6.34807-10.50343,2.28471-3.90864,4.58647-7.84596,6.42823-11.98786,.68984-1.55136,1.3643-3.15163,1.68693-4.82606,.47695-2.47534,1.64812-5.31339,4.25296-6.18773,1.24146-.41671,2.57621-.49247,3.70119-1.22003,1.10965-.71765,2.04748-1.72073,2.89045-2.72725,1.46981-1.75497,2.07138-3.40457,1.93903-5.7521-.08787-1.5586-.89397-2.71203-1.25815-4.18268-.34326-1.38615,.62039-2.13091,1.53461-3.02395,.71064-.69419,1.617-1.46175,1.92029-2.44805,.36386-1.18328-.10071-2.8694-.32342-4.05607-.19562-1.04233-1.78615-.60091-1.59106,.43864,.17624,.93906,.67631,2.57324,.16825,3.45691-.50858,.88458-1.48999,1.53479-2.17428,2.27928-1.53183,1.66663-1.45743,3.14252-.59243,5.17858,.80658,1.89854,1.12662,4.40134-.17493,6.16755-.67716,.91892-1.45572,1.78884-2.30352,2.55311-1.05575,.95173-2.14542,1.2146-3.48702,1.5561-2.2936,.58382-3.9736,2.13644-5.04173,4.23547-.84819,1.66684-.98911,3.49486-1.58458,5.24195-1.33617,3.92027-3.47875,7.60054-5.51802,11.18679-1.79513,3.15691-3.72843,6.241-5.44963,9.4392-2.28931,4.25381-5.49006,7.81371-9.51373,10.48985-4.07819,2.7124-8.49968,4.81729-12.69777,7.32305,.5993-.35771,.20205-.07465-.09795,.04215-.17466,.068-.34087,.17202-.50657,.25825-.6159,.3205-1.22604,.65244-1.83704,.98214-1.51619,.81816-3.02877,1.643-4.5406,2.46918-.831,.45412-1.65122,.80894-2.54577,1.13959-.95828,.35421-1.94291,.70167-2.94985,.88887-1.231,.22886-1.73667-.21162-2.50221-1.16825-.5036-.6293-1.33418-.03313-1.40836,.58336-.85511,7.10633-7.20636,12.49546-13.12649,15.67374-7.96918,4.27834-17.85246,6.14455-26.74666,4.12623-2.01603-.45749-3.87221-1.18111-5.74925-2.02929-1.88191-.85038-3.66209-.4817-5.64278-.4304-4.24697,.11-8.46306-.69246-12.63729-1.36751-3.72996-.6032-7.59164-1.28805-11.38056-.91708-1.47245,.14417-2.91026,.51293-4.37339,.7257-1.73481,.25227-3.48436,.40754-5.23242,.53271-7.14648,.51172-14.3126,.40646-21.46949,.61858-5.67283,.16814-11.2954-.00037-16.9409-.63765-6.27016-.70779-12.77222-1.77169-18.61809-4.24358-2.14003-.9049-4.37046-2.05862-5.90912-3.84786-.3208-.37304-.54364-.85385-.92607-1.16058-.74-.59352-1.86347-.96815-2.69955-1.42147-1.83932-.99727-3.65232-2.04493-5.41154-3.1782-3.4469-2.22045-6.74921-4.79686-9.32105-8.01737-2.73669-3.42692-4.41164-7.67698-4.90128-12.02713-1.07608-9.56023,2.83319-19.04671,6.95773-27.44749,1.12133-2.2839,2.30209-4.53774,3.50493-6.77959,.26096-.48638,.02344-1.04127-.49305-1.21192-4.93809-1.63159-7.70671-7.16376-8.79811-11.9394-1.18808-5.19869-.35972-10.78447,2.27519-15.41869,2.67289-4.70101,6.95194-8.0053,12.04931-9.71535,4.56563-1.53166,9.81545-2.08948,14.48973-.70222,1.4236,.42251,5.12306,1.72822,4.85219,3.6419-.23804,1.68177-2.27927,3.73683-.97018,5.37655,.21507,.26938,.72061,.31321,.99976,.129,1.44605-.95426,2.57369-2.31455,3.78203-3.53694,2.03365-2.05729,4.26332-3.87337,6.72779-5.394,2.42028-1.49337,5.07969-2.53992,7.75589-3.47581,1.80742-.63207,3.70065-1.11661,5.45023-1.90172,.43988-.1974,.45601-.75724,.29597-1.12876-.71867-1.66837-2.12458-2.88022-3.08481-4.39606-1.29834-2.04959-1.02716-4.47184-.81221-6.79029,.38519-4.15459,1.89102-8.67146,5.19879-11.42877,3.06541-2.55529,8.02685-2.56215,11.6941-1.58429,4.6124,1.22988,8.4502,4.49511,11.9709,7.57084,3.83728,3.3523,6.64468,7.13028,6.98048,12.36943,.02928,.4568,.35464,.80908,.825,.825,5.93108,.20076,11.79937,1.0929,17.4738,2.84834,.26052,.08059,.62193,.00232,.80268-.21217,3.41002-4.04638,8.07872-6.72006,13.1571-8.09687,3.07183-.8328,6.26463-1.20645,9.44527-1.18706,3.20814,.01957,5.8414,1.62999,8.86155,2.43274,.54194,.14405,1.0134-.26209,1.04432-.79553,.08432-1.45493,.3411-2.88492,.59197-4.31814,.19211-1.09755,.21107-2.31329,.5922-3.35933,.4795-1.31601,1.19622-1.5188,2.39161-1.76406,.84933-.17426,1.58255-.56863,1.87201-1.43151,.20226-.60292,.16931-1.27358,.51791-1.83068,.3869-.6183,1.09761-1.16637,1.69849-1.55038,1.25826-.80413,2.70638-.99211,4.17372-1.01496,1.35907-.02116,2.48773,.75419,3.85061,.62975,1.28637-.11746,2.39925-.27283,3.68902-.0124,1.28783,.26004,2.44485,.74894,3.51479,1.512,1.18171,.84278,1.48658,1.83158,1.93966,3.16495,.7338,2.15952,2.11074,4.20137,4.11652,5.3495,.99656,.57044,2.41732,1.00101,3.14003,1.93864,.71326,.92538,1.2239,2.4982,.90614,3.6358-.31259,1.11908-1.05205,2.09809-1.4446,3.19186-.41957,1.16904-.10349,2.2512,.20395,3.41854,.86716,3.29257,2.45655,6.33659,3.32529,9.62041,.74206,2.80498,.06211,6.20284-.56093,8.96177-.07927,.35105,.05034,.75034,.37914,.93168,.34768,.19176,.6899,.38874,1.03052,.59277,.57157,.34238,1.1932-.10953,1.24139-.71236,.18956-2.37122,1.80988-4.87219,2.93922-6.9063,1.49086-2.68528,2.58708-5.58377,3.40481-8.54004,1.60762-5.81189,1.98012-11.72602,2.23277-17.71649,.22023-5.22186,.5342-10.44391,1.00453-15.6495,.41618-4.60617,.87203-9.27243,2.56537-13.61798,1.0922-2.80288,2.80734-5.27339,4.76746-7.53686,2.12823-2.45759,4.51032-4.74571,7.30435-6.43534,3.72045-2.24985,8.92696-3.60951,13.23539-2.49016,2.04388,.53101,3.67372,1.99336,5.10172,3.4861,1.95824,2.04702,3.12937,4.6028,3.67272,7.36549,.58133,2.95576,.51075,6.0156,.45587,9.01255-.04382,2.39262-.08566,4.78588-.2003,7.17638-.34566,7.20764-1.38005,14.38433-3.51349,21.29108-1.15223,3.73018-2.60724,7.35254-4.47757,10.78216-1.68882,3.09679-3.63117,6.04877-5.39397,9.1031-.33636,.58279,.23153,1.46934,.93168,1.21192,1.04333-.38358,2.22193-.58685,3.28853-.19743,1.12722,.41155,2.06742,1.18445,3.27584,1.39354,2.16722,.37499,4.48342-.40025,6.49715,.70259,1.35329,.74115,2.68174,1.55697,3.85566,2.56378,.56326,.48308,.96091,.88922,1.17315,1.61341,.17114,.58395,.23484,1.19451,.42,1.77535,.74376,2.3331,3.13138,3.44091,3.69699,5.9059,.23738,1.03454,1.82861,.59666,1.59106-.43864Z"/><path class="i" d="M12.14251,107.89576c3.51738-7.80282,8.82796-14.15509,15.41429-19.54749,1.45921-1.19469,2.90755-2.40333,4.33366-3.63741,1.11278-.96294,2.32529-1.91264,3.25468-3.06091,1.39223-1.72011,1.35573-3.59511,1.98172-5.64166,.31129-1.01768-1.28086-1.45277-1.59106-.43864-.70115,2.29225-.45159,3.84059-2.10909,5.53249-2.37011,2.4193-5.13206,4.53094-7.75486,6.66506-6.41001,5.21571-11.55292,11.75077-14.95408,19.29576-.43291,.96035,.98858,1.80032,1.42473,.83279h0Z"/></g><path class="i" d="M60.4638,63.47578c4.33166-3.07903,9.9403-3.18409,15.04536-3.5639,5.96208-.44356,11.93416-.73788,17.91058-.89446,1.05977-.02777,1.06393-1.67788,0-1.65-6.30391,.16517-12.60298,.48402-18.8905,.96868-5.0935,.39262-10.58652,.6501-14.89824,3.71495-.85837,.61015-.03517,2.04169,.83279,1.42473h0Z"/><path class="i" d="M110.94614,61.6658c3.84115,1.25271,7.22859,3.45456,10.57031,5.67381,3.25222,2.15981,6.53275,4.32606,9.35717,7.04122,4.99386,4.80067,8.43305,11.10802,9.95267,17.85365,.86789,3.85261,1.06327,7.81416,.61843,11.73611-.11947,1.05333,1.5315,1.04481,1.65,0,.81413-7.17789-.58568-14.4994-3.8359-20.94082-1.60347-3.17782-3.67209-6.13281-6.12396-8.71439-2.7935-2.94128-6.12335-5.28676-9.4816-7.53237-3.88505-2.59787-7.7882-5.24713-12.26848-6.70828-1.01187-.33-1.44541,1.26272-.43864,1.59106h0Z"/><path class="i" d="M141.52632,103.73906c-.87934,4.78402-3.35602,9.06104-5.53888,13.34591-1.03095,2.02371-2.03484,4.09332-3.41322,5.90975-1.30261,1.71657-3.08594,3.02084-4.09627,4.95756-.49057,.94039,.93289,1.7756,1.42473,.83279,1.01354-1.94287,2.86392-3.2904,4.15999-5.0386,1.42526-1.92246,2.46671-4.09582,3.54903-6.22035,2.1801-4.27946,4.62763-8.57134,5.50569-13.34841,.1908-1.03806-1.39906-1.48318-1.59106-.43864h0Z"/><path class="i" d="M77.4523,121.46926c.51535,1.03627,.95343,2.10356,1.33822,3.19486,.36778,1.04308,1.1348,2.62517,.81061,3.71618-.32081,1.07963-1.17927,2.19734-1.74114,3.17128-.64002,1.10941-1.30148,2.20646-1.98429,3.29006-1.28526,2.03969-2.64544,4.03234-4.07679,5.97231-.80817,1.09535-1.64021,2.17275-2.49543,3.23177-.73832,.91426-1.8164,2.45546-3.16208,1.99038-1.00571-.34759-1.4378,1.24574-.43864,1.59106,2.69687,.93208,4.64812-2.22907,6.02919-4.01026,1.88997-2.43753,3.66978-4.95882,5.3266-7.56057,.80935-1.27093,1.58941-2.56073,2.33911-3.86774,.65703-1.14546,1.63244-2.43629,1.92752-3.73791,.27616-1.21819-.41875-2.6923-.80625-3.82856-.46426-1.36136-1.00125-2.69742-1.6419-3.98564-.47287-.95084-1.89657-.116-1.42473,.83279h0Z"/><path class="i" d="M80.86808,128.52393c3.84876,1.01483,7.72109,1.93755,11.61609,2.75754,3.13783,.66059,7.01605,1.97598,10.00529,.20003,.91214-.54191,.08315-1.9689-.83279-1.42473-1.43542,.8528-3.09595,.71707-4.68153,.44455-1.7548-.30161-3.49982-.68835-5.2399-1.06415-3.49499-.75479-6.9712-1.59269-10.42854-2.5043-1.0277-.27098-1.46613,1.32014-.43864,1.59106h0Z"/><path class="i" d="M95.313,117.48157c5.12675,.87028,10.31858-.8142,15.0068-2.79999,4.04835-1.71476,7.06689-5.06869,8.73907-9.09925,2.80499-6.76103,1.94639-15.45662-2.34532-21.38568-1.37934-1.90559-3.08255-3.45305-4.9382-4.88251-1.85115-1.42599-3.72442-2.89494-5.80112-3.98223-4.12092-2.15758-9.04558-2.77975-13.39188-.92766-4.10475,1.74915-7.73494,4.67152-10.46905,8.18494-2.66316,3.42223-3.38624,7.89166-3.15062,12.13118,.52884,9.51555,6.18902,20.79582,16.35032,22.76121,1.03745,.20066,1.48175-1.3893,.43864-1.59106-8.18744-1.5836-13.22899-9.90831-14.69517-17.57933-.77778-4.06936-.83532-8.70464,.98686-12.51943,1.63368-3.42016,4.95443-6.36135,8.15435-8.29484,1.81517-1.09678,3.75116-2.06611,5.86069-2.41737,2.10972-.35129,4.26472-.06701,6.30055,.53969,2.11522,.63035,4.00309,1.75293,5.78604,3.03089,1.77728,1.2739,3.57739,2.57635,5.15071,4.1003,4.92693,4.77234,6.56957,12.12138,5.28508,18.73501-.88408,4.552-3.54161,8.88357-7.69828,11.11059-1.98904,1.06567-4.2447,1.75452-6.39417,2.41537-2.84504,.87471-5.76997,1.38272-8.73667,.87911-1.03863-.17631-1.48496,1.41344-.43864,1.59106Z"/><path class="i" d="M54.35043,135.82816c-3.95132,1.28084-7.9113,1.47515-12.02509,1.27592-4.59908-.22274-8.83282-.93071-12.44211-4.02562-6.45832-5.5379-12.42342-15.3247-7.5416-23.72307,2.26645-3.89907,5.60898-6.8808,9.97789-8.09196,2.36737-.65629,4.82976-1.34165,7.29215-1.46663,2.50527-.12716,4.88495,.54283,7.13609,1.60198,3.15401,1.48396,6.1512,3.49024,8.50875,6.07844,1.08649,1.19279,1.9638,2.54329,2.8347,3.8961,1.14242,1.77459,2.26512,3.55426,3.15667,5.47171,1.55374,3.3416,2.62155,6.98189,1.99061,10.69421-.37396,2.20033-1.38607,4.31607-3.16408,5.71787-1.6534,1.30355-3.75781,1.91367-5.72397,2.57106-1.002,.33502-.57242,1.92911,.43864,1.59106,3.93499-1.31567,7.5819-2.79226,9.29428-6.88188,1.34248-3.20622,1.21284-7.00879,.25896-10.31107-1.24764-4.3193-3.75682-8.39271-6.38025-12.00588-2.01484-2.77498-4.67794-5.01682-7.61456-6.77088-2.19542-1.31134-4.60055-2.48688-7.11751-3.01448-2.54304-.53307-5.08791-.25297-7.60075,.30513-2.40821,.53486-4.9265,1.07506-7.14987,2.17781-2.13553,1.05918-3.87795,2.76143-5.3869,4.57707-3.08307,3.70968-4.61728,7.97945-3.9809,12.82775,.64364,4.90364,3.25368,9.23608,6.51347,12.86191,1.84424,2.05133,3.90067,4.03375,6.35496,5.33852,2.3225,1.23471,4.85462,1.80104,7.45655,2.04475,5.16951,.4842,10.36942,.46656,15.35253-1.14875,1.00589-.32607,.57555-1.91981-.43864-1.59106Z"/><path class="i" d="M138.79532,145.22652c1.62717-.33033,3.20879,.61839,4.61664,1.30015,1.65785,.80283,3.34303,1.33556,5.1815,1.5158,.44407,.04354,.825-.41034,.825-.825,0-.48236-.37966-.78134-.825-.825-1.85292-.18166-3.47338-.86918-5.12781-1.67163-1.61801-.78479-3.2824-1.45618-5.10896-1.08538-1.03984,.2111-.59974,1.80186,.43864,1.59106h0Z"/><path class="i" d="M146.85119,153.03905c1.10637-3.97196,5.07342-6.21093,9.02496-6.24782,2.00932-.01876,4.43864,.3566,6.18083,1.42675,1.12152,.6889,.805,1.6777,.29861,2.70408-.48698,.98703-1.14375,1.84865-1.93004,2.61495-.76178,.74241,.40546,1.90864,1.16673,1.16673,1.5245-1.48574,3.89018-4.56142,2.53242-6.76357-.58784-.95341-1.68997-1.43701-2.69597-1.80714-1.38613-.50998-2.84119-.82558-4.31296-.9461-5.07806-.41583-10.42223,2.26749-11.85562,7.41348-.28537,1.02451,1.30608,1.46174,1.59106,.43864h0Z"/><path class="i" d="M163.53404,148.72327c1.69559,.52558,3.52943,.97195,4.96728,2.06438,1.42715,1.0843,2.77086,3.02732,3.23488,4.75589,.49518,1.84462,.98233,3.94826,.6269,5.85507-.24935,1.33772-.84775,2.58652-1.45247,3.79341-.47437,.94675,.94847,1.7833,1.42473,.83279,.68484-1.36681,1.37324-2.79538,1.64231-4.3134,.39635-2.23611-.07912-4.74761-.73332-6.89932-.57368-1.88687-2.01285-3.9366-3.54681-5.17336-1.65028-1.33055-3.73611-1.89007-5.72486-2.50652-1.01656-.3151-1.45133,1.27716-.43864,1.59106h0Z"/><path class="i" d="M234.32444,93.25253c-1.60674,.49515-3.07282,1.37715-4.25243,2.57666l1.29573,.99976c.05911-.13906,.13353-.26273,.20858-.39319,.07409-.12879-.03256,.02981,.02436-.03825,.03925-.04694,.07938-.09306,.12136-.13758,.10231-.10849,.2137-.20609,.32618-.30366,.11227-.09739-.03142,.01985,.04133-.03446,.05106-.03812,.10261-.07557,.15467-.11231,.49271-.34776,1.01486-.64844,1.4919-1.01889,.51314-.39848,.94892-.87239,1.39485-1.34224,.4633-.48815,.82225-.84497,1.35033-1.13702,.3897-.21552,.51706-.75076,.29597-1.12876-.22986-.39299-.73748-.51236-1.12876-.29597-.60462,.33438-1.1203,.80653-1.59601,1.30237-.23661,.24662-.4668,.49937-.70709,.74246-.1098,.11108-.22162,.22016-.33689,.32557-.0627,.05733-.12631,.11357-.19121,.1684-.03226,.02755-.06493,.05462-.09801,.0812,.05045-.03751,.05371-.03985,.00976-.00701-.99099,.74959-2.26897,1.28015-2.78606,2.49655-.16105,.37885-.14434,.79763,.21249,1.06426,.3238,.24195,.78933,.23437,1.08324-.0645,.99021-1.00691,2.19398-1.74235,3.52434-2.15232,.42571-.13119,.69683-.57594,.57621-1.01485-.11564-.42079-.5874-.70794-1.01485-.57621h0Z"/><path class="i" d="M234.46077,79.54085c-2.06866,.57919-3.33134,2.36666-4.3588,4.12945l1.50789,.63571c.0759-.51105,.30589-.90611,.61107-1.30669,.39895-.52364,.83881-1.01391,1.23138-1.54346,.37906-.51132,.73115-1.04254,1.05434-1.59089,.36523-.61967,.68316-1.25024,.71095-1.98295h-1.65c.03948,.3994,.05013,.79746,.03206,1.19841-.02008,.44553,.39355,.825,.825,.825,.46354,0,.80486-.37811,.825-.825,.01807-.40094,.00742-.799-.03206-1.19841-.04383-.44338-.3478-.825-.825-.825-.461,0-.80805,.37797-.825,.825-.01892,.49885-.39688,1.0117-.65946,1.43884-.32431,.52753-.67363,1.04273-1.05378,1.5318-.71873,.92465-1.65515,1.79995-1.83556,3.0147-.06039,.4066,.06637,.80782,.47767,.97326,.37666,.1515,.81908,.0247,1.03022-.33755,.44459-.76277,.89976-1.53177,1.51058-2.17551,.53209-.56077,1.14034-.99358,1.86213-1.19566,1.02102-.28587,.58726-1.87829-.43864-1.59106h0Z"/><path class="i" d="M220.99273,71.18689c-1.07047,.90341-1.28822,2.26146-1.43688,3.56722-.0669,.58763-.12483,1.17624-.18817,1.76425-.02721,.25262-.05821,.50477-.08665,.75723-.02503,.22217,.02813-.17365-.00332,.02796-.0069,.04427-.01271,.08871-.01981,.13295-.01215,.07576-.02518,.15123-.04154,.22621l1.62053,.21932c.06139-1.02992,.14444-2.06352,.32157-3.08079,.08854-.50848,.21016-1.00284,.25713-1.51845,.13859-1.52119-.45242-3.00947-1.9906-3.51708-.42306-.13961-.90103,.16198-1.01485,.57621-.12328,.44865,.15158,.87472,.57621,1.01485,.17405,.05744,.14881,.04408,.32846,.16311,.18504,.1226-.08361-.09407,.06711,.05848,.05083,.05145,.10182,.10202,.14694,.15877-.10974-.138,.02125,.04384,.0319,.06457,.03206,.06242,.06719,.12163,.09654,.18557-.07752-.16885,.00907,.03472,.01652,.06187,.01831,.06674,.03913,.13243,.05512,.19989,.01588,.06696,.02701,.13469,.04011,.2022-.02764-.14244-.00215-.03004,.00352,.04992,.00851,.12005,.01415,.23982,.01365,.36019-.0005,.12176-.00602,.2434-.01578,.36476-.00445,.05535-.01135,.11048-.01598,.16579-.01616,.19311,.0156-.0914,.00348-.02061-.25707,1.50158-.48025,2.98665-.57109,4.51075-.05503,.92331,1.42205,1.1289,1.62053,.21932,.21416-.98147,.25307-2.01679,.36144-3.01379,.02748-.25283,.05609-.50552,.08741-.7579,.00009-.0007,.02983-.22378,.01238-.09789-.01664,.1201,.00828-.0559,.01206-.08012,.01365-.08734,.02654-.1749,.04362-.26166,.117-.59421,.36751-1.14173,.83512-1.53636,.34072-.28755,.29633-.8704,0-1.16673-.33744-.33744-.82517-.28826-1.16673,0h0Z"/><path class="i" d="M215.11005,69.76572c-3.38215,1.34683-6.95514,2.80873-9.22818,5.79736-1.43202,1.88284-2.41373,4.05355-3.87335,5.92985-1.36438,1.75387-2.78826,3.49769-4.35089,5.07956-1.52148,1.54021-3.2145,2.76898-5.15047,3.7336-1.71395,.85399-3.50447,1.55097-5.18419,2.47415-3.61419,1.98636-5.55344,5.03852-6.77506,8.90589-1.56677,4.96002-2.22587,10.18537-2.03412,15.37871,.03908,1.05856,1.68927,1.0637,1.65,0-.16382-4.43678,.29915-8.86145,1.45335-13.15199,.54984-2.04394,1.1871-4.12517,2.31272-5.9341,1.03532-1.66381,2.52611-2.83958,4.2259-3.77379,3.19221-1.75445,6.61491-2.83591,9.40494-5.27213,1.58963-1.38805,2.95324-3.00875,4.29191-4.63343,1.2662-1.53673,2.51337-3.09362,3.53249-4.80891,1.20281-2.02448,2.29397-3.88159,4.27715-5.24474,1.81011-1.24419,3.85596-2.0804,5.88645-2.88897,.97469-.38814,.5496-1.98459-.43864-1.59106h0Z"/><path class="i" d="M170.74367,46.10333c-.76865,.71039-1.10278,1.70978-1.24146,2.72107-.15349,1.11931-.16402,2.25985-.22059,3.38702-.04628,.92217,1.421,1.13101,1.62053,.21932,.49193-2.24775,.62995-4.56071,.37272-6.84807-.04979-.44272-.34354-.825-.825-.825-.40734,0-.87512,.37935-.825,.825,.24084,2.14164,.14714,4.30336-.31378,6.40943l1.62053,.21932c.05056-1.00744,.06334-2.02524,.17486-3.02826,.07732-.69535,.27949-1.42844,.80391-1.9131,.78152-.72228-.38749-1.8869-1.16673-1.16673h0Z"/><path class="i" d="M159.11481,38.30056c-.97479,2.00477-.48021,4.1688-.64856,6.2999h1.65c.03552-1.15386,.11775-2.31724,.08405-3.47163-.03269-1.11986-.27121-2.15855-.97409-3.05001-.2761-.35018-.87776-.28897-1.16673,0-.34581,.34581-.27681,.81565,0,1.16673,.19257,.24423,.30782,.5711,.39085,.94349,.0865,.38799,.10272,.75511,.1044,1.22349,.00382,1.06199-.05581,2.12655-.08848,3.18793-.01372,.44572,.389,.825,.825,.825,.47562,0,.78977-.37899,.825-.825,.07675-.97157,.00107-1.94364-.00278-2.91618-.00354-.89566,.04444-1.76608,.42607-2.55093,.19474-.4005,.10906-.89186-.29597-1.12876-.36225-.21188-.93311-.1064-1.12876,.29597h0Z"/><path class="i" d="M148.30157,43.79306c.30127,1.8104,1.65211,3.2049,2.91584,4.43242l.99976-1.29573c-.04698-.03283-.09379-.06586-.14002-.09976-.029-.02126-.15378-.12482-.02434-.01704-.07933-.06606-.15964-.13048-.23712-.1988-.15476-.13647-.30258-.28069-.44281-.43205-.07791-.08409-.15342-.17032-.22649-.25865-.01068-.01292-.10414-.12642-.04297-.0507,.06885,.08522-.04769-.06414-.05998-.08102-.13074-.1795-.25131-.36609-.37638-.54951-.26031-.38176-.542-.73986-.88654-1.04856-.13523-.12116-.27373-.23914-.40112-.36872-.03475-.03535-.06863-.07147-.10135-.1087-.01321-.01459-.02601-.02953-.0384-.04483-.03868-.0468-.02553-.02986,.03943,.05083-.00387,.00797-.18372-.37298-.08169-.11339-.15733-.40026-.55973-.72349-1.01485-.57621-.38852,.12573-.74524,.58481-.57621,1.01485,.18918,.48131,.4878,.84978,.87098,1.19166,.15288,.1364,.30846,.27033,.44745,.42126,.04736,.05143,.09216,.10477,.13681,.15853,.05061,.06094,.04231,.061-.00082-.00131,.07306,.10556,.14898,.209,.22092,.31541,.28564,.42252,.57699,.84074,.92447,1.21579,.35192,.37983,.75432,.70939,1.17823,1.00565,.3368,.23538,.83132,.08901,1.06426-.21249,.24579-.31813,.23232-.79492-.0645-1.08324-.2893-.28101-.57715-.56366-.85426-.85679-.14289-.15115-.283-.30497-.41866-.46265-.06396-.07434-.12693-.14953-.18875-.22566-.03423-.04215-.06801-.08464-.10163-.12727,.06823,.08652,.04235,.05514-.00867-.01374-.23478-.31699-.44714-.65203-.61798-1.008-.01827-.03807-.03566-.07654-.05343-.11484-.08617-.18569,.03638,.10497-.00289-.00694-.03146-.08965-.06708-.1775-.09629-.26801-.0655-.20297-.11395-.41012-.14895-.62043-.07104-.42691-.62143-.70353-1.01485-.57621-.46158,.14937-.65234,.5574-.57621,1.01485h0Z"/><path class="i" d="M142.91705,54.82986c2.09082,.99632,4.23622,1.23237,6.52954,1.18667,1.09095-.02174,2.18733-.07214,3.27606,.02867,.94516,.08752,2.10883,.27144,2.72285,1.08133,1.1728,1.54693,.01757,3.59421-1.05723,4.81273-.52741,.59794-.99635,.93564-1.69985,1.26315-.65235,.30369-1.03028,.84893-1.31945,1.49202-.43195,.96062,.98951,1.80067,1.42473,.83279,.13754-.30588,.26304-.63351,.54927-.81551,.20652-.13131,.54157-.21741,.79568-.35874,.84889-.47214,1.51518-1.30501,2.08587-2.0721,1.20016-1.61319,1.83364-3.7886,.83977-5.66734-1.10049-2.0803-3.76473-2.27358-5.84978-2.27767-2.58082-.00506-5.06093,.2147-7.46468-.93074-.95375-.45448-1.79193,.96768-.83279,1.42473h0Z"/><path class="i" d="M156.69283,58.76425c.85244,.47913,1.86401,1.01149,2.0745,2.05658,.21189,1.05207-.17635,2.30994-.49309,3.30972-.32705,1.03232-.84803,1.80504-1.67986,2.49336-.64872,.5368-1.23711,.68114-2.06569,.85566-1.03845,.21872-.59899,1.8096,.43864,1.59106,1.09425-.23047,1.92798-.56361,2.79378-1.27999,1.08798-.90022,1.74796-2.02874,2.15187-3.37615,.39608-1.32129,.80498-2.92235,.38163-4.28119-.42101-1.3513-1.59667-2.13486-2.76898-2.79377-.92678-.52091-1.75951,.90385-.83279,1.42473h0Z"/><path class="i" d="M159.40968,63.55433c2.67911,3.62628-.50448,7.69017-3.62771,9.64554-1.72326,1.07889-3.59461,2.04856-5.58288,2.50933-2.03408,.47138-4.13602,.53071-6.18951,.88787-1.27313,.22143-3.54424,.49582-4.00888,2.00405-.24592,.79826,.15917,1.58783,.49174,2.29117,.46144,.9759,.99096,1.91856,1.48315,2.87885,2.04482,3.98954,3.23945,8.31158,3.50895,12.7877,.06352,1.05512,1.71396,1.06237,1.65,0-.25885-4.2993-1.29207-8.49246-3.12681-12.39355-.52268-1.11134-1.12183-2.18344-1.67845-3.2776-.16126-.31699-.68326-1.13291-.6916-1.45341-.01922-.73863,.80156-.78778,1.34049-.93159,2.08922-.55751,4.26876-.61371,6.39512-.95949,3.74554-.6091,7.90509-2.6413,10.43315-5.53312,2.20297-2.51996,3.14877-6.41793,1.02797-9.28853-.62417-.84484-2.05686-.02283-1.42473,.83279h0Z"/><path class="i" d="M138.0014,69.48761c2.44564-2.06689,4.192-4.83602,5.45055-7.75378,.17633-.40878,.12124-.88473-.29597-1.12876-.34811-.20361-.95133-.11536-1.12876,.29597-1.20938,2.80376-2.84163,5.433-5.19255,7.41984-.34052,.28778-.29649,.87024,0,1.16673,.33726,.33726,.82537,.28849,1.16673,0h0Z"/><path class="i" d="M79.3848,156.01461c6.14145-3.53005,13.46588-2.78377,20.25558-3.47817,6.74272-.6896,12.88866-3.22378,17.60878-8.19481,.73104-.76991-.43376-1.93866-1.16673-1.16673-2.3752,2.50146-5.22236,4.51155-8.41702,5.82859-3.21234,1.32433-6.6415,1.81715-10.08639,2.05626-6.45428,.44799-13.23202,.19922-19.027,3.53012-.92041,.52904-.09033,1.95533,.83279,1.42473h0Z"/><path class="i" d="M171.36683,154.31657c.03188,2.56849-1.47283,5.5024-3.67367,6.89211-.89556,.5655-.06858,1.99389,.83279,1.42473,1.38208-.87271,2.46796-2.17766,3.23443-3.61062,.76858-1.4369,1.27682-3.06554,1.25645-4.70622-.01317-1.06097-1.6632-1.06386-1.65,0h0Z"/></g><g><path class="h" d="M84.39194,111.92236c-.43713-1.07874-2.42969-1.37524-3.84546-1.21582-2.20728,.24854-2.36218,1.53174-5.04846,2.62415-2.92688,1.19031-3.99109,.17444-5.84692,1.54321-1.50781,1.11206-2.68335,3.16772-2.09753,4.29004,.35205,.67444,1.1781,.70105,4,1.11121,5.47754,.79626,5.41199,1.13916,6.33337,.83325,1.06616-.35388,2.37744-2.19885,5-5.88892,1.36865-1.92566,1.77075-2.64124,1.505-3.29712Z"/><path class="h" d="M37.06584,107.49771c5.02441,2.28613,5.63745,8.67932,5.81091,10.48816,.16333,1.70325,.7616,7.94202-2.89014,10.07581-3.58337,2.09375-8.84143-1.17786-11.35388-3.9104-.50073-.54468-3.93896-4.40588-3.31921-9.69983,.14941-1.27625,.48938-4.1803,2.87927-6.1217,2.63196-2.13806,6.35669-1.97705,8.87305-.83203Z"/><path class="h" d="M112.22018,92.1084c.3147,2.01331,.80713,5.16382-1.11108,7.22229-2.97437,3.19177-9.09363,.91333-9.44446,.77771-4.65955-1.80225-8.07288-6.71631-7.88892-11.66663,.03821-1.02991,.17407-4.6842,2.89124-6.60986,3.53711-2.50671,8.44653,.04358,9.10876,.38757,5.33167,2.76965,6.27808,8.82471,6.44446,9.88892Z"/></g><g><path class="h" d="M59.44081,86.67344l4.1153,3.09144c.38015,.28557,.92341,.01657,.92674-.45888l.03518-5.02388c.00383-.54754,.17097-1.08149,.48-1.5335l2.65282-3.88012c.25562-.37389,.00233-.88328-.45006-.90511l-4.59322-.22164c-.55296-.02668-1.085-.21956-1.5266-.55343l-4.03496-3.05061c-.3826-.28926-.93085-.01455-.92817,.46508l.0279,5.00304c.00328,.58816-.18202,1.16189-.52872,1.63702l-2.74171,3.75739c-.27225,.37311-.01947,.89915,.44195,.91971l4.59359,.20467c.55362,.02467,1.08688,.21595,1.52996,.54879Z"/><path class="l" d="M28.97113,116.34597l.75017,.89037c.0693,.08225,.2027,.05053,.22757-.0541l.26281-1.10561c.02864-.1205,.09259-.22971,.18366-.31365l.78174-.7206c.07533-.06944,.04536-.19458-.05325-.22236l-1.00121-.28205c-.12053-.03395-.22802-.10348-.30841-.19949l-.73454-.87729c-.06965-.08319-.20444-.05047-.22821,.05539l-.24785,1.10422c-.02914,.12981-.09911,.24687-.19965,.334l-.79511,.68903c-.07895,.06842-.04994,.19721,.05072,.22517l1.00216,.27833c.12078,.03354,.22861,.10278,.30938,.19864Z"/><path class="l" d="M104.60479,86.21813l.99747,.4694c.09214,.04336,.19438-.03667,.1744-.13653l-.21106-1.05512c-.023-.115-.01117-.23424,.03399-.34247l.38764-.92907c.03735-.08952-.03792-.18534-.13374-.17025l-.97291,.15323c-.11713,.01845-.23709,.00113-.34422-.04969l-.97884-.46433c-.09281-.04403-.19585,.03742-.17443,.13789l.22338,1.04801c.02626,.12321,.01235,.25158-.0397,.3663l-.41161,.9072c-.04087,.09008,.03501,.18941,.13267,.17366l.97226-.15681c.11718-.0189,.23733-.00197,.34472,.04857Z"/></g><g><path class="h" d="M47.75476,146.24364c.21777,.96594-10.49805,7.57422-19.72229,4-8.36426-3.24109-11.94128-13.47485-11.27771-14,.28259-.22363,1.37488,1.28162,4.83325,3.83337,3.37769,2.49219,6.02478,4.44543,9.61121,5.44446,1.92578,.5365,5.11865,.55688,11.50452,.59778,4.28613,.02747,4.99731-.11389,5.05103,.12439Z"/><path class="h" d="M35.26432,154.99239c.09904,.43932-4.77458,3.4448-8.96982,1.81923-3.80412-1.47407-5.43097-6.12845-5.12917-6.36729,.12852-.10171,.6253,.58289,2.19819,1.74344,1.53619,1.13346,2.74011,2.02181,4.37124,2.47617,.87586,.244,2.328,.25327,5.23233,.27187,1.94936,.01249,2.27281-.0518,2.29724,.05657Z"/><path class="h" d="M127.2035,76.83396c.82974-.27525,7.56666,8.56533,5.22784,16.98012-2.12086,7.63028-10.80128,11.66212-11.32032,11.12474-.22103-.22885,1.00655-1.31929,2.94801-4.57946,1.89613-3.1841,3.38223-5.67949,3.94836-8.91726,.30404-1.73857,.04455-4.54554-.47434-10.15959-.34826-3.7681-.53424-4.38065-.32956-4.44855Z"/><path class="h" d="M135.97519,87.04773c.37737-.12519,3.44136,3.89557,2.37765,7.72266-.96458,3.4703-4.91249,5.304-5.14855,5.0596-.10053-.10408,.45779-.60002,1.34077-2.08277,.86237-1.44815,1.53826-2.58307,1.79574-4.05562,.13828-.79071,.02026-2.06734-.21573-4.62065-.15839-1.71376-.24298-1.99235-.14988-2.02323Z"/><path class="h" d="M196.49801,87.00447c-.80713,3.92725-8.29382,5.87195-9.94446,4.02783-1.18433-1.32324,1.29297-3.86804,0-6-1.75891-2.90027-7.95874-.93201-8.58337-2.66663-.58643-1.62854,3.60327-6.02539,8.30176-5.92468,4.14404,.08887,6.81885,3.63904,8.05945,5.28577,1.2688,1.68408,2.55444,3.39062,2.16663,5.27771Z"/></g></g></g></g></svg>